<svg width="552" height="368" viewBox="0 0 552 368" fill="none" xmlns="http://www.w3.org/2000/svg">
<path d="M445.553 69.6937C444.153 60.0645 435.195 53.3955 425.544 54.7979C415.893 56.2004 409.203 65.1432 410.602 74.7724C412.001 84.4016 420.96 91.0706 430.611 89.6682C440.262 88.2657 446.952 79.3229 445.553 69.6937Z" fill="#F5F5F5"/>
<path d="M441.394 70.3003C440.328 62.9624 433.501 57.8802 426.146 58.9489C418.792 60.0177 413.694 66.8326 414.76 74.1705C415.826 81.5085 422.653 86.5906 430.008 85.5219C437.363 84.4532 442.46 77.6382 441.394 70.3003Z" fill="#EBEBEB"/>
<path d="M441.334 69.8713C441.253 69.886 441.111 69.3098 440.749 68.3213C440.383 67.3395 439.766 65.9315 438.62 64.4625C438.048 63.7316 437.347 62.9882 436.505 62.2986C435.658 61.6171 434.679 60.979 433.565 60.4807C433.009 60.2297 432.425 60.0052 431.812 59.8323C431.2 59.6556 430.564 59.5099 429.907 59.4275C429.251 59.3428 428.578 59.2921 427.894 59.3097C427.211 59.3259 426.519 59.3922 425.827 59.5099C425.136 59.6372 424.464 59.8139 423.817 60.0332C423.168 60.2525 422.554 60.5315 421.966 60.8362C421.378 61.1401 420.831 61.4964 420.317 61.8725C419.8 62.2464 419.329 62.6585 418.894 63.0847C418.019 63.9355 417.319 64.8724 416.759 65.8042C416.207 66.7411 415.805 67.6802 415.518 68.5634C414.949 70.3365 414.854 71.8703 414.849 72.9184C414.849 73.9716 414.915 74.5611 414.834 74.5744C414.774 74.5861 414.574 74.0179 414.448 72.9397C414.33 71.8674 414.309 70.2592 414.818 68.3588C415.074 67.4123 415.459 66.3996 416.016 65.3817C416.579 64.3705 417.302 63.3482 418.22 62.4156C418.677 61.9483 419.176 61.4964 419.726 61.0857C420.273 60.6721 420.858 60.282 421.489 59.9471C422.119 59.6115 422.78 59.306 423.479 59.0654C424.176 58.824 424.902 58.6326 425.646 58.4957C426.393 58.3676 427.14 58.2985 427.877 58.2845C428.615 58.2697 429.342 58.3286 430.049 58.4273C430.757 58.5244 431.44 58.6893 432.096 58.8895C432.753 59.086 433.377 59.3384 433.968 59.6196C435.151 60.1789 436.182 60.8892 437.059 61.645C437.93 62.4083 438.642 63.2274 439.208 64.0275C440.341 65.6364 440.876 67.1533 441.134 68.2006C441.387 69.259 441.393 69.861 441.334 69.8713Z" fill="#E0E0E0"/>
<path d="M430.741 79.9479L431.112 82.2627L429.045 82.5931L428.685 80.341C426.619 80.5441 424.553 80.2188 423.274 79.5115L424.007 76.8082C425.163 77.408 426.739 77.7274 428.251 77.634L427.698 74.1821C425.315 73.9922 422.63 73.6375 422.157 70.6817C421.807 68.4906 423.096 66.3562 426.302 65.4613L425.935 63.1671L428.002 62.8359L428.362 65.0888C429.932 64.9644 431.506 65.1359 432.759 65.6776L432.134 68.3854C430.983 67.9548 429.853 67.7752 428.799 67.8164L429.363 71.3301C431.742 71.4994 434.386 71.8615 434.852 74.7746C435.196 76.9244 433.923 79.0353 430.741 79.9479ZM427.213 71.1439L426.742 68.2095C425.687 68.6327 425.349 69.3017 425.458 69.984C425.574 70.7067 426.257 71.0004 427.213 71.1439ZM431.565 75.5555C431.448 74.832 430.787 74.5354 429.848 74.3668L430.305 77.2188C431.302 76.8266 431.671 76.2172 431.565 75.5555Z" fill="#E0E0E0"/>
<path d="M390.525 72.8195C388.096 56.1042 372.545 44.5274 355.792 46.9619C339.038 49.3964 327.425 64.9204 329.854 81.6357C332.283 98.351 347.834 109.928 364.587 107.493C381.341 105.059 392.954 89.5348 390.525 72.8195Z" fill="#F5F5F5"/>
<path d="M383.307 73.87C381.456 61.1322 369.605 52.3102 356.838 54.1655C344.07 56.0207 335.221 67.8507 337.072 80.5885C338.923 93.3263 350.773 102.148 363.541 100.293C376.308 98.4378 385.158 86.6078 383.307 73.87Z" fill="#EBEBEB"/>
<path d="M383.199 73.1359C383.059 73.1616 382.813 72.1607 382.184 70.4443C381.548 68.7397 380.478 66.2955 378.488 63.7467C377.495 62.4779 376.279 61.1884 374.817 59.9909C373.346 58.8082 371.645 57.6997 369.713 56.8357C368.748 56.4 367.734 56.0106 366.669 55.7103C365.607 55.4042 364.503 55.151 363.362 55.0075C362.225 54.8603 361.055 54.7727 359.869 54.8036C358.682 54.8323 357.483 54.9464 356.281 55.151C355.081 55.3725 353.914 55.678 352.791 56.0592C351.666 56.4397 350.599 56.9233 349.58 57.4532C348.559 57.9809 347.609 58.5991 346.716 59.252C345.82 59.9004 345.001 60.6165 344.246 61.3562C342.729 62.8333 341.513 64.4599 340.541 66.0762C339.582 67.7035 338.884 69.333 338.388 70.8661C337.399 73.944 337.236 76.6061 337.226 78.4255C337.226 80.253 337.34 81.2775 337.2 81.3011C337.097 81.3217 336.749 80.3354 336.53 78.463C336.325 76.6017 336.289 73.81 337.173 70.512C337.617 68.8693 338.286 67.111 339.252 65.3446C340.229 63.5885 341.483 61.8155 343.078 60.1955C343.872 59.3844 344.738 58.6006 345.692 57.8874C346.641 57.1698 347.657 56.4927 348.752 55.9113C349.845 55.3276 350.995 54.7977 352.207 54.3811C353.418 53.9623 354.677 53.6304 355.969 53.3927C357.265 53.1711 358.562 53.0504 359.841 53.0269C361.123 53.0011 362.384 53.1042 363.611 53.2749C364.84 53.4427 366.027 53.7298 367.165 54.0771C368.305 54.4179 369.39 54.8566 370.413 55.3445C372.467 56.3161 374.257 57.5489 375.78 58.8612C377.292 60.1867 378.528 61.6079 379.51 62.9975C381.477 65.7899 382.405 68.4233 382.854 70.2412C383.291 72.0731 383.302 73.1182 383.199 73.1359Z" fill="#E0E0E0"/>
<path d="M364.811 90.6278L365.455 94.6464L361.868 95.2197L361.242 91.3101C357.656 91.6626 354.07 91.0974 351.851 89.8705L353.122 85.1777C355.129 86.2184 357.866 86.7726 360.49 86.6107L359.53 80.6189C355.393 80.2892 350.733 79.6739 349.911 74.5433C349.303 70.7403 351.542 67.0339 357.106 65.4816L356.469 61.4991L360.057 60.9243L360.683 64.8354C363.408 64.6198 366.142 64.9179 368.316 65.857L367.229 70.5571C365.233 69.81 363.27 69.4987 361.441 69.5694L362.418 75.6686C366.549 75.963 371.139 76.5908 371.949 81.6479C372.544 85.3794 370.335 89.0439 364.811 90.6278ZM358.686 75.3448L357.87 70.2509C356.038 70.9854 355.451 72.1468 355.64 73.3311C355.841 74.5867 357.027 75.0967 358.686 75.3448ZM366.241 83.0036C366.039 81.7472 364.89 81.2328 363.261 80.9406L364.054 85.8916C365.785 85.2101 366.424 84.1517 366.241 83.0036Z" fill="#E0E0E0"/>
<path d="M119.497 177.204C118.098 167.575 109.14 160.906 99.4885 162.308C89.8372 163.711 83.1476 172.653 84.5468 182.283C85.946 191.912 94.9042 198.581 104.556 197.178C114.207 195.776 120.896 186.833 119.497 177.204Z" fill="#F5F5F5"/>
<path d="M115.338 177.809C114.272 170.471 107.445 165.389 100.091 166.457C92.7357 167.526 87.6378 174.341 88.7041 181.679C89.7704 189.017 96.597 194.099 103.952 193.03C111.307 191.961 116.405 185.147 115.338 177.809Z" fill="#EBEBEB"/>
<path d="M115.28 177.389C115.199 177.404 115.057 176.828 114.695 175.839C114.328 174.857 113.712 173.449 112.565 171.98C111.993 171.249 111.293 170.506 110.451 169.816C109.604 169.135 108.624 168.497 107.51 167.999C106.955 167.748 106.37 167.523 105.757 167.35C105.145 167.173 104.509 167.028 103.852 166.945C103.196 166.861 102.523 166.81 101.839 166.828C101.156 166.844 100.464 166.909 99.7714 167.028C99.0803 167.155 98.4076 167.332 97.7614 167.551C97.113 167.77 96.4984 168.049 95.9111 168.354C95.3223 168.658 94.7755 169.014 94.2617 169.39C93.7451 169.764 93.274 170.176 92.8383 170.602C91.964 171.453 91.2633 172.39 90.7039 173.322C90.1512 174.259 89.7493 175.198 89.463 176.081C88.8934 177.854 88.7999 179.387 88.7933 180.436C88.794 181.489 88.8588 182.079 88.7785 182.093C88.7197 182.105 88.5187 181.537 88.3929 180.458C88.2744 179.386 88.2538 177.778 88.7638 175.877C89.0192 174.931 89.4049 173.918 89.9613 172.9C90.5243 171.889 91.2464 170.867 92.1656 169.934C92.6227 169.467 93.1217 169.015 93.6715 168.604C94.2183 168.191 94.8034 167.801 95.4342 167.466C96.0635 167.129 96.7259 166.825 97.4243 166.584C98.1213 166.343 98.847 166.151 99.5919 166.014C100.338 165.886 101.085 165.817 101.823 165.803C102.561 165.788 103.287 165.847 103.995 165.946C104.702 166.042 105.386 166.208 106.041 166.408C106.699 166.605 107.323 166.857 107.913 167.138C109.097 167.697 110.127 168.408 111.004 169.164C111.876 169.928 112.587 170.746 113.153 171.546C114.286 173.155 114.82 174.672 115.08 175.719C115.333 176.777 115.339 177.38 115.28 177.389Z" fill="#E0E0E0"/>
<path d="M104.687 187.466L105.058 189.78L102.991 190.111L102.631 187.859C100.565 188.062 98.4989 187.737 97.2205 187.029L97.9528 184.326C99.109 184.926 100.686 185.245 102.197 185.151L101.645 181.699C99.2614 181.509 96.5765 181.155 96.1032 178.199C95.7529 176.008 97.0423 173.873 100.248 172.978L99.8811 170.684L101.948 170.353L102.308 172.606C103.878 172.482 105.453 172.653 106.705 173.195L106.08 175.902C104.929 175.472 103.799 175.292 102.746 175.334L103.309 178.847C105.688 179.016 108.333 179.379 108.798 182.292C109.142 184.442 107.869 186.554 104.687 187.466ZM101.159 178.662L100.688 175.727C99.6331 176.15 99.2952 176.82 99.4042 177.502C99.5197 178.225 100.203 178.519 101.159 178.662ZM105.511 183.074C105.394 182.351 104.733 182.054 103.794 181.885L104.251 184.737C105.248 184.345 105.617 183.735 105.511 183.074Z" fill="#E0E0E0"/>
<path d="M89.2363 138.332C94.5901 134.952 96.1885 127.86 92.8065 122.491C89.4245 117.122 82.3427 115.509 76.9889 118.889C71.6351 122.268 70.0367 129.36 73.4187 134.729C76.8007 140.098 83.8825 141.711 89.2363 138.332Z" fill="#F5F5F5"/>
<path d="M87.7796 136.018C91.8592 133.443 93.0769 128.039 90.4996 123.947C87.9222 119.856 82.5257 118.627 78.4462 121.202C74.3667 123.777 73.1489 129.181 75.7263 133.273C78.3036 137.364 83.7001 138.594 87.7796 136.018Z" fill="#EBEBEB"/>
<path d="M88.0168 135.863C87.9866 135.819 88.292 135.583 88.7837 135.106C89.2709 134.628 89.9451 133.89 90.5148 132.821C90.7981 132.287 91.055 131.675 91.2419 130.992C91.423 130.308 91.5437 129.557 91.5459 128.763C91.5481 128.366 91.5268 127.959 91.4679 127.549C91.4112 127.139 91.3295 126.722 91.2051 126.31C91.0822 125.898 90.9343 125.484 90.7429 125.082C90.553 124.681 90.3308 124.287 90.0776 123.906C89.8192 123.529 89.5366 123.176 89.2356 122.849C88.9338 122.522 88.6056 122.23 88.2692 121.962C87.9329 121.692 87.5766 121.461 87.2175 121.255C86.859 121.047 86.4888 120.875 86.1208 120.73C85.3841 120.435 84.6415 120.266 83.9401 120.179C83.2365 120.098 82.5726 120.107 81.9713 120.171C80.7664 120.301 79.8302 120.65 79.2054 120.924C78.5798 121.202 78.2464 121.397 78.2169 121.353C78.1941 121.321 78.4789 121.051 79.0869 120.691C79.6933 120.338 80.6435 119.9 81.908 119.702C82.538 119.604 83.2423 119.565 83.9938 119.626C84.7438 119.694 85.5423 119.853 86.3402 120.153C86.7391 120.301 87.1395 120.479 87.5288 120.697C87.9189 120.914 88.306 121.158 88.6718 121.445C89.0376 121.731 89.3946 122.043 89.7221 122.395C90.0496 122.746 90.355 123.127 90.6332 123.533C90.9063 123.943 91.1455 124.369 91.3479 124.803C91.5518 125.238 91.7085 125.686 91.8366 126.132C91.9661 126.578 92.0486 127.028 92.103 127.471C92.1597 127.913 92.1752 128.351 92.1634 128.776C92.1435 129.628 91.9934 130.428 91.7755 131.15C91.5518 131.87 91.253 132.509 90.9269 133.057C90.2697 134.156 89.5094 134.874 88.9552 135.305C88.3951 135.733 88.0388 135.896 88.0168 135.863Z" fill="#E0E0E0"/>
<path d="M79.2267 132.228L77.9483 133.061L77.2057 131.919L78.4495 131.11C77.7827 129.935 77.4302 128.621 77.5126 127.674L79.3136 127.395C79.2628 128.241 79.4895 129.263 79.9443 130.137L81.8506 128.896C81.3339 127.429 80.8349 125.739 82.4673 124.676C83.6773 123.889 85.2877 124.092 86.6662 125.761L87.9329 124.937L88.6755 126.078L87.4309 126.888C87.9196 127.788 88.2339 128.77 88.2427 129.657L86.4675 130.001C86.4197 129.203 86.2276 128.484 85.9243 127.868L83.9842 129.131C84.5119 130.591 84.9962 132.258 83.3873 133.306C82.2016 134.078 80.6097 133.879 79.2267 132.228ZM83.5287 127.804L85.1486 126.749C84.6179 126.233 84.1307 126.209 83.7546 126.454C83.3557 126.714 83.3608 127.198 83.5287 127.804ZM82.0559 131.557C82.4556 131.296 82.457 130.825 82.3091 130.223L80.7341 131.248C81.2301 131.737 81.6909 131.795 82.0559 131.557Z" fill="#E0E0E0"/>
<path d="M397.424 43.5322C402.778 40.1528 404.377 33.0608 400.995 27.6919C397.613 22.3229 390.531 20.7101 385.177 24.0895C379.823 27.4689 378.225 34.5609 381.607 39.9299C384.989 45.2988 392.071 46.9117 397.424 43.5322Z" fill="#F5F5F5"/>
<path d="M395.967 41.2211C400.047 38.646 401.264 33.2417 398.687 29.1501C396.11 25.0585 390.713 23.8292 386.634 26.4043C382.554 28.9794 381.336 34.3838 383.914 38.4753C386.491 42.5669 391.887 43.7962 395.967 41.2211Z" fill="#EBEBEB"/>
<path d="M396.189 41.0679C396.159 41.0238 396.464 40.7875 396.956 40.3106C397.443 39.8329 398.117 39.0947 398.687 38.0253C398.97 37.4917 399.227 36.8794 399.415 36.1964C399.596 35.5126 399.716 34.7612 399.718 33.9677C399.72 33.571 399.699 33.1648 399.64 32.7541C399.583 32.3434 399.502 31.9268 399.377 31.5147C399.254 31.1025 399.106 30.6889 398.915 30.287C398.725 29.8852 398.503 29.4914 398.25 29.1109C397.991 28.7341 397.709 28.3808 397.408 28.054C397.106 27.7265 396.778 27.435 396.441 27.1664C396.105 26.897 395.749 26.6659 395.39 26.4598C395.031 26.2515 394.661 26.08 394.293 25.9343C393.556 25.6399 392.814 25.4706 392.112 25.3838C391.408 25.3028 390.745 25.3117 390.143 25.3757C388.938 25.5052 388.002 25.8548 387.377 26.1286C386.752 26.4068 386.418 26.6019 386.389 26.5577C386.366 26.5253 386.651 26.2559 387.259 25.896C387.865 25.542 388.816 25.1048 390.08 24.9061C390.71 24.8082 391.414 24.7692 392.167 24.831C392.917 24.8988 393.715 25.0577 394.513 25.358C394.912 25.5067 395.312 25.6833 395.702 25.9019C396.092 26.1176 396.479 26.3627 396.845 26.649C397.21 26.9345 397.567 27.2473 397.895 27.5991C398.222 27.9502 398.528 28.3307 398.806 28.737C399.079 29.1469 399.318 29.5724 399.521 30.0073C399.725 30.4423 399.881 30.8898 400.009 31.3365C400.139 31.7826 400.221 32.233 400.276 32.6753C400.333 33.1177 400.348 33.5556 400.336 33.981C400.316 34.8325 400.166 35.6326 399.949 36.3546C399.725 37.0744 399.427 37.714 399.1 38.2616C398.443 39.3604 397.683 40.0788 397.129 40.5093C396.566 40.9377 396.21 41.1003 396.189 41.0679Z" fill="#E0E0E0"/>
<path d="M387.399 37.4329L386.12 38.2653L385.378 37.1238L386.622 36.3142C385.955 35.1395 385.602 33.825 385.685 32.8785L387.486 32.5996C387.435 33.4452 387.661 34.4675 388.116 35.3412L390.023 34.1003C389.506 32.6334 389.007 30.9428 390.639 29.8808C391.849 29.0933 393.46 29.2964 394.838 30.9656L396.106 30.1406L396.848 31.2821L395.604 32.0917C396.092 32.9918 396.407 33.9737 396.415 34.8613L394.64 35.205C394.592 34.4079 394.4 33.6881 394.097 33.0721L392.157 34.335C392.685 35.7945 393.169 37.4623 391.56 38.5096C390.373 39.2824 388.782 39.0837 387.399 37.4329ZM391.7 33.0088L393.32 31.9541C392.789 31.4382 392.302 31.4146 391.926 31.6597C391.527 31.9188 391.533 32.4023 391.7 33.0088ZM390.227 36.7616C390.627 36.5011 390.628 36.0293 390.48 35.4273L388.905 36.4525C389.402 36.942 389.862 36.9994 390.227 36.7616Z" fill="#E0E0E0"/>
<path d="M522.75 346.184C522.75 346.29 412.267 346.375 276.012 346.375C139.709 346.375 29.2501 346.29 29.2501 346.184C29.2501 346.078 139.709 345.992 276.012 345.992C412.267 345.992 522.75 346.078 522.75 346.184Z" fill="#263238"/>
<path d="M492.384 99.0977H212.175C207.344 99.0977 203.428 103.013 203.428 107.844V305.762C203.428 310.593 207.344 314.509 212.175 314.509H319.718C319.718 314.509 326.56 335.663 305.352 346.608H405.911C405.911 346.608 381.968 338.4 388.124 314.509H492.384C497.214 314.509 501.131 310.593 501.131 305.763V107.844C501.131 103.013 497.215 99.0977 492.384 99.0977Z" fill="#263238"/>
<path d="M356.021 293.695C359.833 299.142 353.867 305.108 348.418 301.297C348.238 301.171 348.075 301.008 347.95 300.828C344.148 295.381 350.107 289.424 355.552 293.226C355.732 293.351 355.896 293.514 356.021 293.695Z" fill="#455A64"/>
<path d="M496.307 278.302H208.253V109.861C208.253 105.919 211.448 102.724 215.39 102.724H489.168C493.11 102.724 496.305 105.92 496.305 109.861V278.302H496.307Z" fill="white"/>
<path d="M242.106 142.361H232.658V247.872H242.106V142.361Z" fill="#71B219"/>
<path d="M260.345 178.196H250.897V247.871H260.345V178.196Z" fill="#71B219"/>
<path d="M278.585 155.476H269.137V248.408H278.585V155.476Z" fill="#71B219"/>
<path d="M296.824 146.435H287.376V247.871H296.824V146.435Z" fill="#71B219"/>
<path d="M315.063 180.34H305.615V247.871H315.063V180.34Z" fill="#71B219"/>
<path d="M333.303 193.585H323.855V247.872H333.303V193.585Z" fill="#71B219"/>
<path d="M351.542 153.19H342.094V247.872H351.542V153.19Z" fill="#71B219"/>
<path d="M369.782 170.26H360.334V247.871H369.782V170.26Z" fill="#71B219"/>
<path d="M388.021 156.619H378.573V247.871H388.021V156.619Z" fill="#71B219"/>
<path d="M406.26 185.703H396.812V247.872H406.26V185.703Z" fill="#71B219"/>
<path d="M442.641 153.19H433.193V247.872H442.641V153.19Z" fill="#71B219"/>
<path d="M481.377 214.106H471.929V246.502H481.377V214.106Z" fill="#71B219"/>
<path d="M462.494 185.703H453.046V247.872H462.494V185.703Z" fill="#71B219"/>
<path d="M424.5 173.874H415.052V247.872H424.5V173.874Z" fill="#71B219"/>
<path d="M484.033 155.811C484.028 155.829 483.747 155.783 483.204 155.678C482.614 155.557 481.817 155.394 480.8 155.185C479.754 154.921 478.429 154.762 476.867 154.56C475.312 154.296 473.498 154.212 471.456 154.108C467.381 153.998 462.35 154.177 456.667 155.379C451.002 156.587 444.683 158.745 438.32 162.324C431.961 165.883 425.537 170.791 419.743 177.116C413.953 183.461 409.072 191.298 404.084 199.595C399.043 207.84 393.915 216.796 386.489 224.465C382.808 228.286 378.515 231.747 373.524 234.161C371.03 235.362 368.327 236.21 365.534 236.604C362.738 236.993 359.862 236.865 357.059 236.318C351.455 235.08 346.483 232.137 342.304 228.58C338.067 225.05 334.543 220.896 331.374 216.652C325.034 208.114 320.526 198.909 315.704 190.526C310.945 182.115 306.049 174.252 300.052 168.112C297.065 165.055 293.841 162.415 290.373 160.5C288.708 159.417 286.862 158.764 285.145 157.962C283.334 157.392 281.603 156.688 279.807 156.381C272.71 154.72 265.948 155.344 260.409 156.923C254.83 158.489 250.432 160.994 247.097 163.325C243.832 165.774 241.538 167.991 240.105 169.594C239.416 170.37 238.877 170.977 238.477 171.428C238.106 171.838 237.908 172.042 237.893 172.031C237.878 172.02 238.047 171.793 238.393 171.36C238.774 170.891 239.288 170.26 239.946 169.452C241.334 167.796 243.595 165.516 246.854 162.993C250.183 160.589 254.603 157.998 260.248 156.355C265.851 154.699 272.724 154.007 279.971 155.652C287.236 157.099 294.635 161.272 300.68 167.5C306.797 173.709 311.758 181.626 316.553 190.045C321.41 198.44 325.93 207.607 332.209 216.035C335.348 220.229 338.832 224.323 342.983 227.774C347.079 231.259 351.908 234.097 357.28 235.284C359.967 235.806 362.713 235.929 365.389 235.558C368.063 235.182 370.662 234.371 373.077 233.21C377.91 230.876 382.122 227.5 385.749 223.742C393.067 216.211 398.189 207.326 403.254 199.09C408.267 190.806 413.208 182.924 419.098 176.525C424.987 170.153 431.511 165.223 437.962 161.669C444.417 158.093 450.819 155.963 456.55 154.8C462.297 153.642 467.374 153.523 471.476 153.697C473.53 153.832 475.353 153.95 476.912 154.248C478.477 154.485 479.802 154.677 480.846 154.976C481.856 155.228 482.646 155.426 483.232 155.573C483.766 155.713 484.038 155.794 484.033 155.811Z" fill="#263238"/>
<path d="M222.259 255.22C222.045 255.22 221.871 225.133 221.871 188.027C221.871 150.909 222.045 120.829 222.259 120.829C222.473 120.829 222.647 150.909 222.647 188.027C222.647 225.134 222.473 255.22 222.259 255.22Z" fill="#263238"/>
<path d="M481.376 255.22C481.376 255.434 424.693 255.609 354.787 255.609C284.856 255.609 228.184 255.435 228.184 255.22C228.184 255.006 284.856 254.832 354.787 254.832C424.693 254.832 481.376 255.006 481.376 255.22Z" fill="#263238"/>
<path d="M239.123 263.913C242.995 263.913 246.134 263.739 246.134 263.525C246.134 263.31 242.995 263.137 239.123 263.137C235.251 263.137 232.112 263.31 232.112 263.525C232.112 263.739 235.251 263.913 239.123 263.913Z" fill="#263238"/>
<path d="M261.011 264.336C265.639 264.336 269.391 264.162 269.391 263.948C269.391 263.734 265.639 263.56 261.011 263.56C256.384 263.56 252.632 263.734 252.632 263.948C252.632 264.162 256.384 264.336 261.011 264.336Z" fill="#263238"/>
<path d="M280.847 264.336C285.475 264.336 289.227 264.162 289.227 263.948C289.227 263.734 285.475 263.56 280.847 263.56C276.22 263.56 272.468 263.734 272.468 263.948C272.468 264.162 276.22 264.336 280.847 264.336Z" fill="#263238"/>
<path d="M300.684 264.336C305.312 264.336 309.063 264.162 309.063 263.948C309.063 263.734 305.312 263.56 300.684 263.56C296.056 263.56 292.305 263.734 292.305 263.948C292.305 264.162 296.056 264.336 300.684 264.336Z" fill="#263238"/>
<path d="M320.52 264.336C325.148 264.336 328.899 264.162 328.899 263.948C328.899 263.734 325.148 263.56 320.52 263.56C315.892 263.56 312.141 263.734 312.141 263.948C312.141 264.162 315.892 264.336 320.52 264.336Z" fill="#263238"/>
<path d="M340.356 264.336C344.984 264.336 348.735 264.162 348.735 263.948C348.735 263.734 344.984 263.56 340.356 263.56C335.728 263.56 331.977 263.734 331.977 263.948C331.977 264.162 335.728 264.336 340.356 264.336Z" fill="#263238"/>
<path d="M360.193 264.336C364.82 264.336 368.572 264.162 368.572 263.948C368.572 263.734 364.82 263.56 360.193 263.56C355.565 263.56 351.813 263.734 351.813 263.948C351.813 264.162 355.565 264.336 360.193 264.336Z" fill="#263238"/>
<path d="M380.028 264.336C384.656 264.336 388.408 264.162 388.408 263.948C388.408 263.734 384.656 263.56 380.028 263.56C375.401 263.56 371.649 263.734 371.649 263.948C371.649 264.162 375.401 264.336 380.028 264.336Z" fill="#263238"/>
<path d="M399.865 264.336C404.493 264.336 408.244 264.162 408.244 263.948C408.244 263.734 404.493 263.56 399.865 263.56C395.237 263.56 391.486 263.734 391.486 263.948C391.486 264.162 395.237 264.336 399.865 264.336Z" fill="#263238"/>
<path d="M419.701 264.336C424.329 264.336 428.08 264.162 428.08 263.948C428.08 263.734 424.329 263.56 419.701 263.56C415.073 263.56 411.322 263.734 411.322 263.948C411.322 264.162 415.073 264.336 419.701 264.336Z" fill="#263238"/>
<path d="M438.15 264.343C442.778 264.343 446.53 264.169 446.53 263.955C446.53 263.741 442.778 263.567 438.15 263.567C433.523 263.567 429.771 263.741 429.771 263.955C429.771 264.169 433.523 264.343 438.15 264.343Z" fill="#263238"/>
<path d="M456.6 264.349C461.227 264.349 464.979 264.175 464.979 263.961C464.979 263.747 461.227 263.573 456.6 263.573C451.972 263.573 448.22 263.747 448.22 263.961C448.22 264.175 451.972 264.349 456.6 264.349Z" fill="#263238"/>
<path d="M475.049 264.356C479.677 264.356 483.428 264.182 483.428 263.968C483.428 263.754 479.677 263.58 475.049 263.58C470.421 263.58 466.67 263.754 466.67 263.968C466.67 264.182 470.421 264.356 475.049 264.356Z" fill="#263238"/>
<path d="M318.689 191.483C318.698 191.321 319.849 191.725 320.217 193.309C320.387 194.054 320.446 195.034 319.925 196.032C319.67 196.521 319.192 197.001 318.549 197.195C317.909 197.404 317.203 197.273 316.629 196.968C315.47 196.334 314.892 195.049 314.988 193.957C315.067 192.851 315.666 191.999 316.304 191.525C316.948 191.029 317.682 190.958 318.109 191.079C318.547 191.21 318.698 191.422 318.667 191.469C318.621 191.614 317.708 191.177 316.783 192.097C316.35 192.521 315.967 193.213 315.961 193.997C315.938 194.771 316.374 195.619 317.131 196.038C317.902 196.462 318.699 196.211 319.083 195.543C319.487 194.889 319.545 194.07 319.482 193.443C319.36 192.115 318.608 191.611 318.689 191.483Z" fill="#263238"/>
<path d="M443.031 156.797C443.028 156.739 443.327 156.641 443.849 156.798C444.367 156.948 445.043 157.43 445.535 158.258C446.02 159.07 446.338 160.285 445.953 161.57C445.585 162.791 444.459 164.151 442.72 164.154C441.859 164.141 441.115 163.64 440.663 163.08C440.207 162.507 439.929 161.869 439.794 161.242C439.505 159.994 439.771 158.75 440.327 157.957C441.488 156.311 442.927 156.396 442.874 156.516C442.943 156.67 441.741 156.902 440.97 158.338C440.593 159.033 440.464 159.999 440.74 161.01C440.99 161.983 441.738 163.091 442.754 163.098C443.789 163.127 444.72 162.193 445.028 161.268C445.367 160.321 445.203 159.326 444.874 158.607C444.191 157.078 442.995 156.934 443.031 156.797Z" fill="#263238"/>
<path d="M335.832 49.1738H146.231V196.735H335.832V49.1738Z" fill="white"/>
<path d="M335.832 196.735C335.83 195.262 335.762 138.222 335.654 49.1734L335.832 49.3508C281.875 49.3611 216.573 49.3743 146.247 49.3876H146.231L146.445 49.1734C146.437 102.363 146.429 152.671 146.424 196.735L146.231 196.542C258.75 196.656 334.141 196.733 335.832 196.735C334.142 196.736 258.75 196.813 146.231 196.928H146.038V196.735C146.031 152.671 146.024 102.363 146.016 49.1734V48.9585H146.23H146.246C216.572 48.9725 281.874 48.985 335.831 48.9953H336.008V49.1727C335.902 138.222 335.834 195.263 335.832 196.735Z" fill="#263238"/>
<path d="M186.171 68.5596H155.479V70.2671H186.171V68.5596Z" fill="#263238"/>
<path d="M170.646 72.5566H155.479V74.2642H170.646V72.5566Z" fill="#263238"/>
<path d="M178.537 175.532H172.978V177.134H178.537V175.532Z" fill="#263238"/>
<path d="M192.666 184.097H185.556V185.699H192.666V184.097Z" fill="#263238"/>
<path d="M217.417 184.097H210.307V185.699H217.417V184.097Z" fill="#263238"/>
<path d="M242.168 184.097H235.059V185.699H242.168V184.097Z" fill="#263238"/>
<path d="M266.92 184.097H259.81V185.699H266.92V184.097Z" fill="#263238"/>
<path d="M291.671 184.097H284.561V185.699H291.671V184.097Z" fill="#263238"/>
<path d="M316.423 184.097H309.313V185.699H316.423V184.097Z" fill="#263238"/>
<path d="M178.537 154.133H172.978V155.736H178.537V154.133Z" fill="#263238"/>
<path d="M178.537 113.86H172.978V115.463H178.537V113.86Z" fill="#263238"/>
<path d="M178.537 93.6221H172.978V95.2243H178.537V93.6221Z" fill="#263238"/>
<path d="M178.819 133.998H173.259V135.6H178.819V133.998Z" fill="#263238"/>
<path d="M316.223 177.133C316.223 177.133 316.021 177.147 315.627 177.153C315.221 177.158 314.639 177.164 313.878 177.173C312.328 177.181 310.064 177.193 307.15 177.209C301.297 177.223 292.848 177.244 282.408 177.27C261.508 177.284 232.652 177.304 200.781 177.326C194.155 177.325 187.659 177.323 181.437 177.323H181.248V177.133C181.274 149.834 181.297 125.81 181.313 108.6C181.337 100.007 181.356 93.1169 181.37 88.3616C181.384 85.9976 181.395 84.1664 181.402 82.9137C181.409 82.3006 181.415 81.8318 181.419 81.5036C181.425 81.1863 181.437 81.0244 181.437 81.0244C181.437 81.0244 181.448 81.1863 181.454 81.5036C181.458 81.8318 181.464 82.3006 181.471 82.9137C181.478 84.1664 181.49 85.9968 181.503 88.3616C181.517 93.1162 181.536 100.007 181.56 108.6C181.576 125.81 181.599 149.834 181.625 177.133L181.436 176.944C187.657 176.944 194.153 176.943 200.779 176.941C232.65 176.963 261.506 176.983 282.407 176.997C292.846 177.023 301.296 177.044 307.149 177.058C310.062 177.074 312.327 177.086 313.876 177.094C314.637 177.103 315.221 177.109 315.626 177.114C316.021 177.121 316.223 177.133 316.223 177.133Z" fill="#263238"/>
<path d="M317.789 134.798C317.789 134.904 288.467 134.989 252.305 134.989C216.131 134.989 186.815 134.903 186.815 134.798C186.815 134.693 216.131 134.606 252.305 134.606C288.468 134.606 317.789 134.692 317.789 134.798Z" fill="#263238"/>
<path d="M317.789 114.661C317.789 114.767 288.467 114.852 252.305 114.852C216.131 114.852 186.815 114.766 186.815 114.661C186.815 114.555 216.131 114.47 252.305 114.47C288.468 114.47 317.789 114.556 317.789 114.661Z" fill="#263238"/>
<path d="M317.789 94.4223C317.789 94.5283 288.467 94.6137 252.305 94.6137C216.131 94.6137 186.815 94.5276 186.815 94.4223C186.815 94.3163 216.131 94.231 252.305 94.231C288.468 94.231 317.789 94.3163 317.789 94.4223Z" fill="#263238"/>
<path d="M317.789 154.935C317.789 155.041 288.467 155.126 252.305 155.126C216.131 155.126 186.815 155.04 186.815 154.935C186.815 154.829 216.131 154.744 252.305 154.744C288.468 154.743 317.789 154.829 317.789 154.935Z" fill="#263238"/>
<path d="M188.166 172.801C188.166 169.429 188.166 154.934 188.166 154.934L199.301 137.647L206.858 143.445L222.368 119.353L231.515 125.794L244.241 103.569L254.581 111.992L270.091 82.5088L286.795 115.462L300.317 98.9738L316.225 94.4217V172.8L188.166 172.801Z" fill="#455A64"/>
<path d="M317.789 88.0789C317.789 88.0789 317.695 88.0885 317.509 88.0936C317.311 88.0973 317.037 88.1017 316.68 88.1083C315.935 88.115 314.856 88.1238 313.452 88.1356C310.614 88.1473 306.483 88.1643 301.246 88.1856L301.329 88.1444C297.772 92.7871 293.338 98.5735 288.237 105.231L288.191 105.29H288.116C278.613 105.3 267.474 105.311 255.366 105.323L255.523 105.234C251.212 112.409 246.561 120.151 241.752 128.155C237.062 135.951 232.522 143.498 228.235 150.625L228.092 150.864L227.927 150.639C221.454 141.744 215.468 133.518 210.18 126.251L210.437 126.243C203.704 136.751 198.151 145.418 194.274 151.469C192.334 154.476 190.816 156.832 189.774 158.448C189.257 159.24 188.86 159.848 188.584 160.272C188.313 160.682 188.163 160.887 188.163 160.887C188.163 160.887 188.286 160.665 188.543 160.246C188.81 159.818 189.195 159.2 189.694 158.397C190.72 156.771 192.214 154.4 194.122 151.373C197.972 145.304 203.486 136.613 210.172 126.074L210.295 125.881L210.431 126.066C215.733 133.323 221.734 141.538 228.224 150.42L227.916 150.434C232.199 143.305 236.735 135.756 241.421 127.956C246.234 119.954 250.889 112.215 255.204 105.042L255.258 104.952H255.363C267.471 104.964 278.609 104.976 288.113 104.985L287.993 105.044C293.122 98.4072 297.581 92.6392 301.157 88.0112L301.19 87.9692H301.242C306.479 87.9906 310.611 88.0075 313.448 88.0193C314.851 88.0311 315.932 88.0406 316.677 88.0473C317.034 88.0531 317.307 88.0583 317.505 88.0612C317.695 88.0693 317.789 88.0789 317.789 88.0789Z" fill="#263238"/>
<path d="M214.419 133.096C215.113 133.096 215.675 132.554 215.675 131.886C215.675 131.218 215.113 130.676 214.419 130.676C213.725 130.676 213.163 131.218 213.163 131.886C213.163 132.554 213.725 133.096 214.419 133.096Z" fill="#263238"/>
<path d="M252.195 111.624C252.889 111.624 253.451 111.082 253.451 110.414C253.451 109.746 252.889 109.204 252.195 109.204C251.501 109.204 250.938 109.746 250.938 110.414C250.938 111.082 251.501 111.624 252.195 111.624Z" fill="#263238"/>
<path d="M281.561 106.349C282.255 106.349 282.818 105.807 282.818 105.139C282.818 104.47 282.255 103.929 281.561 103.929C280.867 103.929 280.305 104.47 280.305 105.139C280.305 105.807 280.867 106.349 281.561 106.349Z" fill="#263238"/>
<path d="M152.694 56.7056C153.5 56.7056 154.153 56.0522 154.153 55.2461C154.153 54.4401 153.5 53.7866 152.694 53.7866C151.887 53.7866 151.234 54.4401 151.234 55.2461C151.234 56.0522 151.887 56.7056 152.694 56.7056Z" fill="#263238"/>
<path d="M156.939 56.7056C157.745 56.7056 158.398 56.0522 158.398 55.2461C158.398 54.4401 157.745 53.7866 156.939 53.7866C156.133 53.7866 155.479 54.4401 155.479 55.2461C155.479 56.0522 156.133 56.7056 156.939 56.7056Z" fill="#263238"/>
<path d="M161.183 56.7056C161.989 56.7056 162.643 56.0522 162.643 55.2461C162.643 54.4401 161.989 53.7866 161.183 53.7866C160.377 53.7866 159.724 54.4401 159.724 55.2461C159.724 56.0522 160.377 56.7056 161.183 56.7056Z" fill="#263238"/>
<path d="M335.673 60.9912C335.673 61.0972 293.309 61.1825 241.063 61.1825C188.798 61.1825 146.443 61.0964 146.443 60.9912C146.443 60.8859 188.799 60.7998 241.063 60.7998C293.309 60.7991 335.673 60.8852 335.673 60.9912Z" fill="#263238"/>
<path d="M197.855 267.763C197.776 266.953 197.687 266.155 197.574 265.357C197.464 264.514 197.339 263.674 197.199 262.84C197.339 263.674 197.464 264.514 197.574 265.357C197.686 266.155 197.776 266.953 197.855 267.763Z" fill="#263238"/>
<path d="M191.402 277.736C190.705 276.162 190.548 274.419 190.087 272.767C189.84 271.878 189.424 270.934 188.591 270.54C188.04 270.282 187.388 270.316 186.804 270.135C184.701 269.506 184.128 266.571 182.138 265.661C181.508 265.379 180.81 265.323 180.136 265.245C177.472 264.93 174.717 264.008 173.041 261.916C172.49 261.242 172.074 260.444 171.4 259.892C170.714 259.341 169.657 259.106 168.994 259.668C169.556 260.793 170.108 261.916 170.658 263.03C171.164 264.042 171.681 265.088 172.525 265.83C173.379 266.583 174.638 266.977 175.661 266.505C175.999 266.347 176.336 266.089 176.718 266.134C176.988 266.168 177.224 266.359 177.404 266.572C178.854 268.18 178.382 270.845 176.966 272.487C175.56 274.117 173.469 274.972 171.456 275.77C170.736 276.051 169.972 276.344 169.207 276.209C167.813 275.951 167.071 274.432 166.666 273.072C165.756 270.059 165.317 266.787 163.45 264.246C162.855 263.447 162.112 262.717 161.753 261.784C161.37 260.772 161.46 259.591 160.853 258.703C160.223 257.77 158.885 257.23 158.796 256.106C158.739 255.319 159.391 254.621 160.111 254.284C160.831 253.936 161.641 253.834 162.383 253.531C162.675 253.408 163.001 253.194 163.012 252.879C163.012 252.407 162.36 252.216 162.191 251.777C162.012 251.283 162.517 250.821 162.731 250.338C163.192 249.236 162.045 248.122 160.932 247.673C159.83 247.223 158.492 246.897 157.975 245.817C157.738 245.323 157.716 244.749 157.615 244.21C157.356 242.85 156.355 241.534 154.984 241.309C153.601 241.084 152.071 242.31 152.296 243.681C152.431 244.435 152.993 245.019 153.297 245.716C153.612 246.413 153.523 247.448 152.803 247.673C151.622 248.033 150.487 245.874 149.497 246.616C149.902 247.999 150.295 249.382 150.7 250.776C149.149 251.562 147.293 250.135 146.63 248.515C145.966 246.907 145.944 245.064 145.157 243.512C144.37 241.95 142.245 240.791 140.896 241.893C140.828 243.894 143.47 244.704 144.64 246.323C145.483 247.492 145.36 249.393 144.111 250.135C142.875 250.876 140.907 249.583 141.379 248.223C141.548 247.751 141.942 247.358 141.986 246.851C142.031 246.222 141.503 245.716 141.019 245.311C140.266 244.67 139.513 244.04 138.76 243.411C138.276 243.006 137.759 242.579 137.152 242.399C135.6 241.949 134.049 243.208 133.228 244.591C132.407 245.985 131.946 247.616 130.81 248.774C129.18 250.461 126.088 250.561 124.559 248.796C123.018 247.031 123.805 243.725 126.065 243.084C126.92 242.848 128 242.871 128.449 242.117C129.236 240.779 126.988 239.07 127.763 237.721C128.359 236.687 129.933 237.159 131.08 236.811C132.216 236.462 132.857 235.315 133.531 234.326C134.195 233.348 135.24 232.358 136.41 232.617C136.32 231.931 136.23 231.189 136.533 230.571C136.837 229.942 137.691 229.536 138.254 229.942C137.68 230.886 138.366 232.201 139.367 232.674C140.368 233.146 141.538 233.034 142.639 232.91C143.741 232.775 145.124 232.371 145.214 231.269C145.248 230.909 145.113 230.527 145.248 230.19C145.731 228.875 148.159 230.684 149.093 229.627C149.633 229.077 149.037 228.098 148.284 227.918C147.542 227.727 146.766 228.008 146.001 228.031C145.237 228.065 144.303 227.66 144.27 226.895C144.236 226.142 145.079 225.602 145.169 224.86C145.315 223.601 143.179 223.275 142.425 224.298C141.683 225.321 141.942 226.727 142.167 227.974C142.403 229.223 142.515 230.695 141.593 231.573C141.2 232.169 140.177 231.854 139.84 231.225C139.491 230.595 139.569 229.83 139.514 229.122C139.458 228.402 139.143 227.592 138.446 227.402C137.962 227.267 137.445 227.503 136.95 227.57C134.994 227.807 133.633 225.277 134.252 223.41C134.859 221.533 136.636 220.33 138.356 219.374C139.615 218.677 141.178 218.024 142.426 218.733C143.01 219.059 143.415 219.622 143.988 219.959C144.978 220.543 146.204 220.33 147.339 220.352C149.127 220.397 150.892 221.083 152.23 222.253C152.737 222.713 153.208 223.478 152.815 224.029C152.388 224.614 151.162 224.737 151.376 225.423C152.703 225.862 154.288 224.839 154.434 223.455C155.086 223.748 155.558 224.411 155.614 225.119C157.042 223.669 159.786 223.883 160.955 225.558C161.27 225.997 161.495 226.525 161.945 226.828C162.394 227.121 163.181 226.974 163.238 226.446C163.261 226.277 163.204 226.109 163.148 225.951C162.879 225.186 162.597 224.433 162.327 223.68C163.373 223.118 164.61 223.995 165.318 224.939C167.949 228.459 169.826 226.345 173.537 226.918C176.044 227.3 177.146 228.908 178.563 230.854C182.903 236.835 188.637 241.738 192.584 247.989C192.999 248.641 193.381 249.304 193.741 249.979C193.674 249.811 193.618 249.642 193.551 249.474C191.999 245.393 190.077 241.49 187.816 237.814C187.333 237.027 186.838 236.251 186.332 235.487C186.017 235.014 185.691 234.531 185.365 234.07C184.949 233.463 184.51 232.878 184.072 232.293C183.723 231.821 183.375 231.36 183.015 230.91C182.768 230.595 182.509 230.28 182.251 229.966C181.981 229.606 181.689 229.257 181.374 228.909L180.429 227.818C180.339 227.706 180.238 227.593 180.126 227.481C179.8 227.099 179.451 226.728 179.103 226.357C179.081 226.312 179.047 226.278 179.001 226.244C178.912 226.142 178.811 226.042 178.709 225.94C178.428 225.625 178.125 225.322 177.832 225.018C177.348 224.523 176.854 224.029 176.347 223.556C175.932 223.14 175.504 222.747 175.066 222.354C174.684 222.005 174.301 221.657 173.908 221.319C173.526 220.982 173.143 220.656 172.749 220.33C172.277 219.925 171.794 219.532 171.298 219.139H171.287C169.927 218.048 168.521 217.014 167.083 216.047C166.723 215.799 166.375 215.563 166.015 215.328C165.655 215.08 165.284 214.855 164.924 214.631C164.553 214.406 164.193 214.17 163.822 213.957C163.451 213.72 163.08 213.507 162.709 213.293C162.406 213.113 162.114 212.944 161.81 212.787C161.652 212.686 161.507 212.607 161.349 212.529C160.709 212.169 160.056 211.821 159.404 211.495C159.078 211.326 158.752 211.158 158.415 211C157.999 210.787 157.571 210.584 157.144 210.393C157.088 210.359 157.021 210.326 156.953 210.303C156.571 210.123 156.188 209.943 155.795 209.775C155.243 209.538 154.693 209.302 154.142 209.078C153.512 208.819 152.882 208.56 152.241 208.324C151.532 208.055 150.824 207.795 150.105 207.559C149.385 207.312 148.654 207.076 147.923 206.85C147.192 206.625 146.461 206.424 145.719 206.221C144.258 205.827 142.774 205.479 141.278 205.175C141.256 205.164 141.223 205.164 141.2 205.152C140.626 205.04 140.053 204.927 139.48 204.837C139.435 204.826 139.401 204.815 139.367 204.815C139.12 204.77 138.861 204.725 138.602 204.691C137.534 204.511 136.455 204.365 135.364 204.241C135.24 204.219 135.106 204.207 134.97 204.196C134.655 204.152 134.341 204.129 134.015 204.096C133.296 204.028 132.575 203.972 131.844 203.927C131.091 203.871 130.327 203.837 129.562 203.814C128.764 203.781 127.966 203.77 127.167 203.77C125.053 203.77 122.962 203.859 120.893 204.051C120.399 204.085 119.915 204.129 119.432 204.186C118.925 204.242 118.42 204.299 117.914 204.366C117.408 204.433 116.902 204.5 116.408 204.579C115.902 204.658 115.407 204.737 114.901 204.826C114.474 204.894 114.035 204.973 113.608 205.063C112.551 205.265 111.505 205.49 110.471 205.737C109.987 205.849 109.504 205.973 109.02 206.108C108.537 206.231 108.053 206.366 107.581 206.502C106.783 206.726 106.007 206.974 105.231 207.221H105.22C104.591 207.435 103.95 207.649 103.332 207.862C103.321 207.862 103.298 207.873 103.287 207.885C102.646 208.11 102.028 208.345 101.398 208.593C101.364 208.604 101.331 208.615 101.297 208.626C100.723 208.852 100.15 209.087 99.5877 209.323C98.8797 209.616 98.182 209.931 97.496 210.246C96.9117 210.516 96.3383 210.785 95.776 211.066C95.1688 211.369 94.5616 211.673 93.9654 211.988C93.9426 212 93.9205 212.011 93.8977 212.022C93.3244 212.326 92.751 212.641 92.1887 212.967C91.6036 213.293 91.0303 213.63 90.4569 213.99H90.4459C89.9064 214.316 89.378 214.642 88.8495 214.979C88.6471 215.102 88.4557 215.237 88.2533 215.373C87.691 215.732 87.1516 216.103 86.6003 216.485C85.9254 216.946 85.2733 217.43 84.6212 217.913C84.0478 218.341 83.4855 218.779 82.9343 219.217C79.7525 221.758 76.7835 224.558 74.0971 227.594C73.1411 228.651 72.2417 229.73 71.3651 230.832C70.6225 231.777 69.9034 232.733 69.2174 233.722C68.5992 234.582 68.003 235.459 67.4282 236.35C68.003 235.459 68.5992 234.582 69.2174 233.722C69.3978 233.699 69.5773 233.677 69.7569 233.666C70.7689 233.587 71.8369 233.621 72.748 233.182C73.5915 232.766 74.1869 232.013 74.9516 231.473C76.9079 230.079 80.1124 229.82 80.6409 227.482C80.8205 226.695 80.607 225.841 80.8992 225.087C81.4498 223.681 83.328 223.479 84.8346 223.502C85.4757 223.502 86.2286 223.592 86.5215 224.154C86.735 224.548 86.6113 225.042 86.4538 225.458C85.5316 228.089 83.6651 230.36 81.293 231.799C79.3367 232.992 76.7843 233.913 76.2448 236.14C76.5149 236.893 77.886 236.837 77.9987 237.624C78.0774 238.253 77.2678 238.58 76.9756 239.142C76.548 239.963 77.5261 240.964 78.4601 240.919C79.3934 240.874 80.1691 240.199 80.8551 239.57C82.9012 237.67 85.0488 235.624 85.7907 232.925C86.1057 231.812 86.2176 230.508 87.117 229.766C88.1849 228.889 90.0963 229.496 90.4562 230.834C91.3445 230.339 92.7275 229.968 93.1882 230.89C93.3457 231.216 93.3008 231.598 93.3796 231.947C93.6718 233.385 95.6398 234.038 95.8422 235.488C96.0785 237.163 93.9308 238.03 92.2557 238.288C90.7381 238.524 89.2197 238.76 87.7021 239.008C87.0389 239.109 86.353 239.221 85.8135 239.615C85.274 240.02 84.9369 240.784 85.2512 241.38C85.4315 241.706 85.7796 241.919 86.038 242.189C87.2973 243.449 86.2625 246.046 84.4865 246.102C83.8793 246.125 83.2831 245.9 82.6759 245.878C80.8772 245.799 79.4486 247.384 78.5941 248.97C77.7396 250.555 77.0985 252.365 75.6596 253.444C73.3435 255.187 69.3521 254.782 68.2275 257.459C67.7778 258.538 68.0141 259.752 68.1937 260.91C68.374 262.057 68.452 263.339 67.7778 264.295C67.1147 265.239 65.3829 265.441 64.8883 264.384C64.6749 263.924 64.7418 263.383 64.8213 262.889C65.0907 261.225 65.3498 259.561 65.6081 257.896C65.7987 256.659 65.968 255.276 65.2372 254.264C64.2141 252.847 61.92 252.983 60.5937 254.119C59.2785 255.254 58.7272 257.031 58.3563 258.728C58.0862 259.987 57.7712 261.763 57.0742 263.203C56.8379 264.597 56.6466 266.014 56.5008 267.442C56.3544 268.903 56.2535 270.354 56.1976 271.838C56.3772 271.691 56.5685 271.512 56.7709 271.298C57.479 270.567 58.9068 267.476 60.1889 268.993C60.515 269.375 60.526 269.994 60.2117 270.399C59.818 270.905 59.0312 271.017 58.7272 271.568C58.3563 272.221 58.8737 273.03 59.4809 273.458C60.0881 273.896 60.83 274.166 61.2576 274.785C62.0782 275.965 61.2915 277.753 62.09 278.956C62.776 279.99 64.2377 280.058 65.4859 280.194C65.6324 280.216 65.7671 280.239 65.9128 280.261C66.2617 277.788 67.4194 275.775 70.7925 275.011C75.4469 273.954 81.5638 277.81 84.1833 281.318C87.1067 285.243 88.4896 290.796 92.9645 292.764C96.169 294.17 100.723 293.664 102.285 296.801C103.679 299.611 101.251 302.771 100.88 305.886C100.644 307.944 101.319 309.99 101.476 312.047C101.622 314.116 101.015 316.522 99.1373 317.388C98.0915 317.861 96.7762 317.804 95.9328 318.591C94.4372 320.008 95.6627 322.931 94.1678 324.348C93.6394 324.842 92.9085 325.023 92.2675 325.349C88.9054 327.047 88.996 331.994 90.5585 335.423C90.6152 335.547 90.6711 335.659 90.727 335.783C95.6965 338.763 101.049 341.146 106.704 342.832C113.181 344.8 120.05 345.846 127.168 345.846C139.21 345.846 150.566 342.843 160.505 337.548H160.516C162.675 336.39 164.777 335.131 166.801 333.759C169.938 331.656 172.885 329.306 175.628 326.743C177.528 324.966 179.338 323.088 181.025 321.109C182.217 319.737 183.341 318.31 184.421 316.848C184.971 316.095 185.511 315.341 186.017 314.566C187.568 312.294 188.985 309.922 190.256 307.471C192.099 303.941 193.64 300.23 194.854 296.385C196.102 292.505 197.013 288.48 197.564 284.343C197.778 282.747 197.946 281.128 198.059 279.497C197.283 280.25 196.271 280.79 195.203 280.768C193.493 280.738 192.088 279.31 191.402 277.736Z" fill="#71B219"/>
<path d="M110.201 222.356C108.793 223.198 108.045 224.787 106.959 226.015C105.874 227.244 103.925 228.12 102.643 227.098C102.027 226.606 101.749 225.793 101.679 225.007C101.578 223.878 101.851 222.718 102.444 221.751C103.056 220.754 103.989 219.97 104.508 218.92C105.026 217.87 104.92 216.334 103.859 215.843C103.285 215.576 102.562 215.681 102.053 215.305C101.137 214.631 101.793 213.036 102.857 212.633C103.921 212.23 105.102 212.543 106.236 212.615C110.355 212.877 113.384 210.181 116.479 207.941C118.887 206.199 124.016 204.142 126.803 205.921C127.915 206.632 128.35 208.457 127.302 209.259C126.833 209.618 126.187 209.698 125.751 210.095C125.227 210.572 125.154 211.355 124.854 211.997C124.074 213.664 121.826 214.269 121.102 215.961C120.666 216.98 120.863 218.247 120.192 219.128C119.659 219.826 118.736 220.073 117.881 220.276C116.091 220.701 114.301 221.127 112.511 221.553C111.714 221.742 110.903 221.937 110.201 222.356Z" fill="#5A8E14"/>
<path d="M158.212 309.81C156.43 312.495 156.107 315.85 155.612 319.034C155.118 322.218 154.269 325.602 151.822 327.699C149.376 329.796 144.882 329.671 143.535 326.744C142.805 325.155 143.179 323.281 142.781 321.578C142.261 319.36 140.496 317.647 139.657 315.529C138.943 313.721 138.941 311.725 138.882 309.782C138.564 299.164 135.975 288.084 128.746 280.3C127.859 279.344 126.85 278.413 125.589 278.078C124.089 277.679 122.376 278.27 121.441 279.508C120.861 280.277 120.561 281.256 119.85 281.906C118.305 283.317 115.609 282.306 114.577 280.487C113.545 278.667 113.688 276.437 113.861 274.352C114.075 271.767 114.288 269.182 114.502 266.597C114.614 265.245 114.766 263.794 115.654 262.768C116.915 261.309 119.179 261.24 120.722 260.084C122.746 258.568 123.017 255.675 124.292 253.492C125.568 251.309 129.564 250.385 130.154 252.844C134.38 243.8 143.718 257.236 149.271 256.226C150.884 255.932 152.459 255.158 154.082 255.385C156.948 255.786 158.428 258.944 159.404 261.669C161.023 266.192 162.642 270.715 164.261 275.238C164.878 276.961 165.674 278.876 167.38 279.538C168.688 280.045 170.207 279.658 171.526 280.138C175.01 281.405 173.877 286.889 171.073 289.316C168.269 291.741 164.333 293.272 163 296.732C161.997 299.339 162.797 302.394 161.717 304.97C160.944 306.813 159.318 308.145 158.212 309.81Z" fill="#263238"/>
<path d="M171.44 312.759C170.295 312.919 168.944 312.354 168.073 313.116C167.565 313.56 167.452 314.289 167.251 314.933C166.971 315.827 166.434 316.672 165.629 317.149C164.823 317.626 163.728 317.667 162.981 317.101C162.234 316.536 162.006 315.33 162.617 314.62C162.895 314.297 163.296 314.106 163.605 313.813C165.125 312.376 164.085 309.713 165.24 308.005C165.922 306.998 166.994 305.977 167.742 304.956C168.318 304.171 168.529 303.549 169.588 303.341C174.219 302.429 176.312 312.077 171.44 312.759Z" fill="#263238"/>
<path d="M65.4046 293.478C65.1801 291.443 65.8543 289.408 65.8882 287.35C65.911 285.933 65.8094 284.438 65.7873 283.01C64.5729 282.954 63.3585 282.785 62.178 282.504C61.9307 282.447 61.6606 282.369 61.5148 282.167C61.3573 281.954 61.3794 281.672 61.3684 281.413C61.2786 279.817 59.7381 278.76 58.3552 277.962C57.6472 277.546 56.9273 277.141 56.1626 276.882C56.1626 277.05 56.1626 277.208 56.1737 277.376C56.4548 285.28 58.0291 292.87 60.6935 299.92C61.9079 303.136 63.3585 306.25 65.0337 309.23C65.7306 310.523 66.4954 311.793 67.2939 313.041C68.2831 314.582 69.3179 316.088 70.4307 317.539C71.4648 318.933 72.5674 320.294 73.7251 321.598C75.3104 323.409 76.9856 325.129 78.7505 326.77C80.313 328.232 81.944 329.615 83.6412 330.93C79.7618 320.518 76.1075 309.893 69.4739 301.033C67.7318 298.717 65.7306 296.356 65.4046 293.478Z" fill="#5A8E14"/>
<path d="M56.1509 273.52C56.1435 273.948 56.1281 274.374 56.1281 274.801C56.1281 275.15 56.1391 275.494 56.145 275.841C56.1391 275.494 56.1281 275.15 56.1281 274.801C56.1288 274.374 56.1443 273.949 56.1509 273.52Z" fill="#263238"/>
<g opacity="0.6">
<g opacity="0.6">
<path opacity="0.6" d="M87.6179 333.81C88.2155 334.213 88.8197 334.607 89.4321 334.989C89.859 335.259 90.2866 335.518 90.7253 335.776C90.2866 335.518 89.8597 335.259 89.4321 334.989C88.8197 334.607 88.2155 334.213 87.6179 333.81Z" fill="#263238"/>
</g>
</g>
<path d="M171.074 289.316C173.878 286.89 175.01 281.405 171.526 280.138C170.208 279.658 168.689 280.045 167.381 279.538C165.675 278.876 164.878 276.961 164.262 275.238C162.643 270.715 161.024 266.192 159.405 261.668C158.43 258.943 156.95 255.786 154.083 255.384C152.46 255.158 150.884 255.932 149.272 256.226C143.719 257.235 134.381 243.799 130.155 252.844C129.565 250.385 125.569 251.308 124.293 253.491C123.017 255.675 122.747 258.568 120.723 260.084C119.179 261.24 116.916 261.309 115.654 262.768C114.767 263.794 114.615 265.245 114.503 266.597C114.289 269.182 114.075 271.767 113.861 274.352C113.688 276.437 113.546 278.666 114.578 280.486C115.609 282.307 118.306 283.317 119.851 281.906C120.562 281.257 120.861 280.277 121.441 279.508C122.377 278.27 124.09 277.679 125.59 278.078C126.851 278.412 127.859 279.344 128.747 280.3C135.975 288.083 138.565 299.165 138.883 309.781C138.941 311.724 138.944 313.721 139.658 315.529C140.496 317.648 142.262 319.36 142.782 321.578C143.181 323.281 142.805 325.155 143.536 326.744C144.882 329.671 149.376 329.796 151.823 327.699C154.269 325.602 155.119 322.218 155.613 319.034C156.108 315.85 156.431 312.495 158.213 309.81C159.318 308.145 160.945 306.812 161.718 304.969C162.798 302.393 161.997 299.339 163.001 296.732C164.334 293.273 168.269 291.741 171.074 289.316Z" fill="#71B219"/>
<g opacity="0.6">
<g opacity="0.6">
<path opacity="0.6" d="M56.1957 271.845V271.833V271.845C56.1847 271.979 56.1729 272.103 56.1729 272.238C56.156 272.66 56.1575 273.091 56.1501 273.52C56.1575 273.092 56.156 272.66 56.1729 272.238C56.1737 272.104 56.1847 271.979 56.1957 271.845Z" fill="#263238"/>
</g>
</g>
<g opacity="0.6">
<g opacity="0.6">
<path opacity="0.6" d="M56.1457 275.842C56.1516 276.189 56.1516 276.539 56.1626 276.882C56.1509 276.539 56.1509 276.189 56.1457 275.842Z" fill="#263238"/>
</g>
</g>
<path d="M65.9103 280.255C65.7645 280.233 65.6291 280.21 65.4834 280.187C64.2351 280.051 62.7734 279.985 62.0875 278.95C61.2889 277.746 62.0764 275.959 61.2551 274.778C60.8275 274.16 60.0856 273.89 59.4784 273.451C58.8712 273.024 58.3538 272.215 58.7254 271.562C59.0287 271.011 59.8162 270.899 60.2099 270.392C60.525 269.987 60.5132 269.369 60.1871 268.986C58.9058 267.469 57.4772 270.561 56.7692 271.292C56.5668 271.505 56.3754 271.685 56.1958 271.831V271.842C56.1848 271.977 56.173 272.1 56.173 272.236C56.1561 272.658 56.1575 273.089 56.1502 273.517C56.1428 273.946 56.1274 274.372 56.1274 274.799C56.1274 275.148 56.1384 275.492 56.1443 275.839C56.1502 276.187 56.1502 276.536 56.1612 276.879C56.9259 277.138 57.6457 277.542 58.3538 277.959C59.7367 278.758 61.2771 279.814 61.3669 281.411C61.378 281.669 61.3559 281.95 61.5134 282.165C61.6591 282.367 61.9292 282.446 62.1765 282.502C63.3571 282.783 64.5715 282.951 65.7859 283.007" fill="#71B219"/>
<path d="M65.7866 283.01C65.8087 284.437 65.9103 285.933 65.8874 287.35C65.8536 289.408 65.1794 291.443 65.4039 293.478C65.7299 296.356 67.7311 298.717 69.474 301.034C76.1075 309.894 79.7618 320.519 83.6412 330.931H83.6523C84.3721 331.504 85.1029 332.044 85.8448 332.572C86.4292 332.994 87.0195 333.407 87.6171 333.81C88.2147 334.213 88.819 334.607 89.4314 334.989C89.8582 335.259 90.2859 335.517 90.7245 335.776C90.6686 335.652 90.6119 335.539 90.556 335.416C88.9927 331.986 88.9029 327.039 92.265 325.341C92.906 325.015 93.6369 324.835 94.1653 324.34C95.6609 322.924 94.4354 320 95.9302 318.583C96.7737 317.797 98.0889 317.853 99.1348 317.381C101.012 316.515 101.62 314.109 101.474 312.04C101.316 309.983 100.642 307.936 100.878 305.879C101.249 302.764 103.677 299.605 102.283 296.793C100.72 293.657 96.1665 294.162 92.9619 292.757C88.4871 290.79 87.1041 285.235 84.1807 281.311C81.5613 277.802 75.4444 273.947 70.7899 275.003C67.4168 275.768 66.2591 277.781 65.9103 280.254" fill="#5A8E14"/>
<path d="M60.5919 254.113C61.9189 252.978 64.2123 252.843 65.2354 254.259C65.9662 255.271 65.7977 256.654 65.6063 257.891C65.3472 259.555 65.0889 261.22 64.8195 262.884C64.7408 263.378 64.6731 263.918 64.8865 264.379C65.3811 265.436 67.1129 265.234 67.776 264.289C68.4509 263.333 68.3722 262.052 68.1919 260.905C68.0123 259.747 67.776 258.533 68.2257 257.453C69.3503 254.777 73.3417 255.182 75.6579 253.439C77.0967 252.36 77.7378 250.55 78.5923 248.964C79.4468 247.379 80.8746 245.794 82.6741 245.873C83.2813 245.895 83.8775 246.12 84.4847 246.097C86.2607 246.041 87.2955 243.444 86.0362 242.184C85.7779 241.914 85.429 241.701 85.2494 241.375C84.9344 240.779 85.2722 240.014 85.8117 239.61C86.3512 239.216 87.0372 239.104 87.7003 239.003C89.2187 238.755 90.7363 238.519 92.2539 238.283C93.9291 238.025 96.0767 237.159 95.8405 235.483C95.6381 234.032 93.6707 233.38 93.3778 231.942C93.299 231.593 93.3439 231.211 93.1864 230.885C92.7257 229.962 91.3428 230.334 90.4544 230.829C90.0945 229.491 88.1831 228.883 87.1152 229.761C86.2158 230.503 86.1032 231.807 85.7889 232.92C85.047 235.619 82.8994 237.665 80.8533 239.565C80.1673 240.195 79.3916 240.869 78.4583 240.914C77.5251 240.959 76.5469 239.959 76.9738 239.137C77.266 238.575 78.0756 238.249 77.9969 237.619C77.8843 236.832 76.5131 236.888 76.243 236.134C76.7825 233.908 79.3349 232.987 81.2912 231.794C83.6633 230.355 85.5298 228.084 86.452 225.453C86.6095 225.037 86.7332 224.542 86.5197 224.149C86.2276 223.586 85.4739 223.497 84.8328 223.497C83.3262 223.475 81.4487 223.676 80.8974 225.082C80.6052 225.835 80.8187 226.689 80.6391 227.477C80.1107 229.816 76.9061 230.074 74.9498 231.468C74.1851 232.008 73.5897 232.761 72.7462 233.177C71.8358 233.616 70.7671 233.582 69.7551 233.661C69.5755 233.672 69.3952 233.695 69.2156 233.717C68.5974 234.577 68.0012 235.454 67.4264 236.345C66.8516 237.236 66.2981 238.141 65.7638 239.057C63.2452 243.363 61.1763 247.962 59.602 252.797C59.0515 254.478 58.565 256.187 58.1433 257.921C57.7215 259.655 57.3646 261.415 57.0724 263.197C57.7694 261.758 58.0844 259.982 58.3545 258.722C58.7262 257.025 59.2767 255.249 60.5919 254.113Z" fill="#5A8E14"/>
<g opacity="0.6">
<g opacity="0.6">
<path opacity="0.6" d="M198.181 273.823C198.175 272.8 198.144 271.785 198.09 270.776C198.144 271.785 198.175 272.8 198.181 273.823C198.204 274.149 198.204 274.476 198.204 274.802C198.204 276.376 198.148 277.927 198.058 279.479C198.147 277.927 198.204 276.376 198.204 274.802C198.203 274.476 198.203 274.149 198.181 273.823Z" fill="#263238"/>
</g>
</g>
<g opacity="0.6">
<g opacity="0.6">
<path opacity="0.6" d="M193.739 249.987C194.077 250.886 194.395 251.791 194.694 252.703C194.395 251.791 194.077 250.886 193.739 249.987C193.739 249.987 193.751 249.976 193.739 249.976C193.739 249.987 193.739 249.987 193.739 249.987Z" fill="#263238"/>
</g>
</g>
<path d="M198.181 273.824C198.175 272.801 198.144 271.786 198.09 270.777C198.036 269.768 197.957 268.764 197.855 267.764C197.776 266.954 197.687 266.155 197.574 265.358C197.464 264.514 197.339 263.675 197.199 262.84C196.778 260.337 196.222 257.875 195.539 255.463C195.275 254.535 194.994 253.616 194.694 252.703C194.395 251.792 194.077 250.886 193.739 249.987C193.739 249.987 193.739 249.987 193.739 249.976C193.38 249.301 192.998 248.638 192.582 247.986C188.635 241.734 182.901 236.832 178.561 230.85C177.144 228.905 176.042 227.297 173.535 226.915C169.825 226.341 167.946 228.455 165.316 224.936C164.608 223.991 163.371 223.114 162.326 223.676C162.596 224.43 162.877 225.183 163.146 225.948C163.203 226.105 163.259 226.274 163.236 226.442C163.18 226.971 162.393 227.117 161.943 226.825C161.493 226.521 161.268 225.993 160.954 225.555C159.784 223.88 157.041 223.665 155.612 225.116C155.557 224.407 155.084 223.744 154.432 223.452C154.286 224.835 152.7 225.858 151.374 225.42C151.16 224.734 152.386 224.61 152.813 224.026C153.207 223.475 152.735 222.71 152.228 222.249C150.89 221.08 149.125 220.394 147.338 220.349C146.202 220.327 144.977 220.54 143.987 219.955C143.413 219.618 143.008 219.056 142.424 218.73C141.176 218.021 139.613 218.674 138.354 219.371C136.633 220.326 134.857 221.529 134.25 223.407C133.632 225.274 134.992 227.803 136.948 227.567C137.443 227.499 137.96 227.264 138.444 227.398C139.141 227.59 139.456 228.399 139.512 229.118C139.568 229.826 139.49 230.591 139.838 231.221C140.175 231.85 141.198 232.165 141.592 231.569C142.514 230.692 142.401 229.219 142.165 227.971C141.94 226.723 141.681 225.318 142.423 224.295C143.177 223.272 145.313 223.598 145.167 224.857C145.077 225.599 144.234 226.138 144.268 226.892C144.302 227.657 145.235 228.061 146 228.028C146.764 228.005 147.54 227.724 148.282 227.915C149.036 228.095 149.631 229.073 149.092 229.624C148.158 230.681 145.729 228.871 145.246 230.186C145.11 230.523 145.246 230.906 145.212 231.265C145.122 232.367 143.739 232.772 142.638 232.907C141.536 233.03 140.366 233.143 139.365 232.67C138.364 232.198 137.679 230.883 138.252 229.938C137.689 229.533 136.835 229.938 136.532 230.568C136.228 231.186 136.318 231.928 136.408 232.614C135.239 232.355 134.193 233.344 133.53 234.323C132.855 235.312 132.214 236.458 131.079 236.807C129.932 237.156 128.358 236.684 127.762 237.718C126.986 239.067 129.234 240.776 128.447 242.114C127.998 242.868 126.918 242.845 126.064 243.081C123.803 243.722 123.017 247.027 124.557 248.792C126.086 250.558 129.178 250.456 130.809 248.77C131.944 247.612 132.405 245.982 133.226 244.588C134.047 243.205 135.598 241.945 137.15 242.395C137.757 242.575 138.275 243.002 138.758 243.407C139.511 244.036 140.265 244.666 141.018 245.307C141.501 245.712 142.03 246.218 141.985 246.848C141.94 247.354 141.546 247.747 141.378 248.22C140.906 249.58 142.873 250.873 144.11 250.131C145.358 249.389 145.481 247.489 144.638 246.319C143.468 244.7 140.826 243.891 140.894 241.889C142.243 240.788 144.368 241.946 145.155 243.509C145.942 245.06 145.965 246.905 146.628 248.512C147.291 250.131 149.147 251.559 150.698 250.772C150.293 249.378 149.9 247.995 149.496 246.612C150.485 245.87 151.62 248.029 152.801 247.669C153.521 247.444 153.611 246.41 153.296 245.713C152.992 245.016 152.43 244.431 152.295 243.678C152.07 242.306 153.599 241.081 154.982 241.306C156.353 241.531 157.354 242.846 157.613 244.206C157.714 244.746 157.737 245.319 157.973 245.814C158.49 246.894 159.828 247.22 160.93 247.669C162.044 248.119 163.19 249.232 162.729 250.334C162.515 250.818 162.009 251.279 162.189 251.774C162.358 252.213 163.01 252.404 163.01 252.876C162.999 253.191 162.673 253.404 162.381 253.528C161.639 253.831 160.829 253.933 160.109 254.281C159.39 254.618 158.738 255.316 158.794 256.102C158.884 257.227 160.222 257.766 160.851 258.7C161.459 259.588 161.369 260.769 161.751 261.781C162.111 262.714 162.853 263.445 163.449 264.243C165.315 266.783 165.754 270.055 166.664 273.069C167.069 274.429 167.811 275.947 169.206 276.205C169.97 276.34 170.735 276.048 171.454 275.767C173.466 274.968 175.558 274.114 176.964 272.483C178.381 270.841 178.852 268.177 177.402 266.569C177.222 266.356 176.987 266.164 176.717 266.13C176.335 266.085 175.997 266.344 175.66 266.501C174.637 266.974 173.377 266.58 172.523 265.826C171.679 265.084 171.163 264.039 170.656 263.027C170.105 261.914 169.555 260.789 168.992 259.665C169.655 259.102 170.712 259.339 171.398 259.889C172.073 260.44 172.489 261.238 173.039 261.913C174.715 264.004 177.469 264.926 180.135 265.241C180.809 265.32 181.506 265.377 182.136 265.657C184.126 266.568 184.699 269.503 186.802 270.132C187.386 270.312 188.038 270.278 188.59 270.537C189.421 270.931 189.838 271.875 190.085 272.763C190.546 274.416 190.703 276.159 191.4 277.733C192.086 279.307 193.492 280.735 195.201 280.757C196.269 280.78 197.281 280.239 198.057 279.487V279.475C198.147 277.924 198.203 276.373 198.203 274.798C198.203 274.476 198.203 274.15 198.181 273.824Z" fill="#71B219"/>
<path d="M169.588 303.341C168.529 303.549 168.318 304.172 167.742 304.956C166.994 305.976 165.922 306.998 165.24 308.005C164.085 309.713 165.125 312.376 163.605 313.813C163.296 314.106 162.895 314.297 162.617 314.62C162.006 315.33 162.234 316.536 162.981 317.101C163.727 317.667 164.823 317.627 165.629 317.149C166.435 316.672 166.971 315.827 167.251 314.933C167.452 314.289 167.565 313.56 168.073 313.116C168.943 312.355 170.295 312.92 171.44 312.759C176.312 312.077 174.219 302.429 169.588 303.341Z" fill="#71B219"/>
<path d="M171.074 289.316C173.878 286.89 175.01 281.405 171.526 280.138C170.208 279.658 168.689 280.045 167.381 279.538C165.675 278.876 164.878 276.961 164.262 275.238C162.643 270.715 161.024 266.192 159.405 261.668C158.43 258.943 156.95 255.786 154.083 255.384C152.46 255.158 150.884 255.932 149.272 256.226C143.719 257.235 134.381 243.799 130.155 252.844C129.565 250.385 125.569 251.308 124.293 253.491C123.017 255.675 122.747 258.568 120.723 260.084C119.179 261.24 116.916 261.309 115.654 262.768C114.767 263.794 114.615 265.245 114.503 266.597C114.289 269.182 114.075 271.767 113.861 274.352C113.688 276.437 113.546 278.666 114.578 280.486C115.609 282.307 118.306 283.317 119.851 281.906C120.562 281.257 120.861 280.277 121.441 279.508C122.377 278.27 124.09 277.679 125.59 278.078C126.851 278.412 127.859 279.344 128.747 280.3C135.975 288.083 138.565 299.165 138.883 309.781C138.941 311.724 138.944 313.721 139.658 315.529C140.496 317.648 142.262 319.36 142.782 321.578C143.181 323.281 142.805 325.155 143.536 326.744C144.882 329.671 149.376 329.796 151.823 327.699C154.269 325.602 155.119 322.218 155.613 319.034C156.108 315.85 156.431 312.495 158.213 309.81C159.318 308.145 160.945 306.812 161.718 304.969C162.798 302.393 161.997 299.339 163.001 296.732C164.334 293.273 168.269 291.741 171.074 289.316Z" fill="#5A8E14"/>
<path d="M198.181 273.824C198.175 272.801 198.144 271.786 198.09 270.777C198.036 269.768 197.957 268.764 197.855 267.764C197.776 266.954 197.687 266.155 197.574 265.358C197.464 264.514 197.339 263.675 197.199 262.84C196.778 260.337 196.222 257.875 195.539 255.463C195.275 254.535 194.994 253.616 194.694 252.703C194.395 251.792 194.077 250.886 193.739 249.987C193.739 249.987 193.739 249.987 193.739 249.976C193.38 249.301 192.998 248.638 192.582 247.986C188.635 241.734 182.901 236.832 178.561 230.85C177.144 228.905 176.042 227.297 173.535 226.915C169.825 226.341 167.946 228.455 165.316 224.936C164.608 223.991 163.371 223.114 162.326 223.676C162.596 224.43 162.877 225.183 163.146 225.948C163.203 226.105 163.259 226.274 163.236 226.442C163.18 226.971 162.393 227.117 161.943 226.825C161.493 226.521 161.268 225.993 160.954 225.555C159.784 223.88 157.041 223.665 155.612 225.116C155.557 224.407 155.084 223.744 154.432 223.452C154.286 224.835 152.7 225.858 151.374 225.42C151.16 224.734 152.386 224.61 152.813 224.026C153.207 223.475 152.735 222.71 152.228 222.249C150.89 221.08 149.125 220.394 147.338 220.349C146.202 220.327 144.977 220.54 143.987 219.955C143.413 219.618 143.008 219.056 142.424 218.73C141.176 218.021 139.613 218.674 138.354 219.371C136.633 220.326 134.857 221.529 134.25 223.407C133.632 225.274 134.992 227.803 136.948 227.567C137.443 227.499 137.96 227.264 138.444 227.398C139.141 227.59 139.456 228.399 139.512 229.118C139.568 229.826 139.49 230.591 139.838 231.221C140.175 231.85 141.198 232.165 141.592 231.569C142.514 230.692 142.401 229.219 142.165 227.971C141.94 226.723 141.681 225.318 142.423 224.295C143.177 223.272 145.313 223.598 145.167 224.857C145.077 225.599 144.234 226.138 144.268 226.892C144.302 227.657 145.235 228.061 146 228.028C146.764 228.005 147.54 227.724 148.282 227.915C149.036 228.095 149.631 229.073 149.092 229.624C148.158 230.681 145.729 228.871 145.246 230.186C145.11 230.523 145.246 230.906 145.212 231.265C145.122 232.367 143.739 232.772 142.638 232.907C141.536 233.03 140.366 233.143 139.365 232.67C138.364 232.198 137.679 230.883 138.252 229.938C137.689 229.533 136.835 229.938 136.532 230.568C136.228 231.186 136.318 231.928 136.408 232.614C135.239 232.355 134.193 233.344 133.53 234.323C132.855 235.312 132.214 236.458 131.079 236.807C129.932 237.156 128.358 236.684 127.762 237.718C126.986 239.067 129.234 240.776 128.447 242.114C127.998 242.868 126.918 242.845 126.064 243.081C123.803 243.722 123.017 247.027 124.557 248.792C126.086 250.558 129.178 250.456 130.809 248.77C131.944 247.612 132.405 245.982 133.226 244.588C134.047 243.205 135.598 241.945 137.15 242.395C137.757 242.575 138.275 243.002 138.758 243.407C139.511 244.036 140.265 244.666 141.018 245.307C141.501 245.712 142.03 246.218 141.985 246.848C141.94 247.354 141.546 247.747 141.378 248.22C140.906 249.58 142.873 250.873 144.11 250.131C145.358 249.389 145.481 247.489 144.638 246.319C143.468 244.7 140.826 243.891 140.894 241.889C142.243 240.788 144.368 241.946 145.155 243.509C145.942 245.06 145.965 246.905 146.628 248.512C147.291 250.131 149.147 251.559 150.698 250.772C150.293 249.378 149.9 247.995 149.496 246.612C150.485 245.87 151.62 248.029 152.801 247.669C153.521 247.444 153.611 246.41 153.296 245.713C152.992 245.016 152.43 244.431 152.295 243.678C152.07 242.306 153.599 241.081 154.982 241.306C156.353 241.531 157.354 242.846 157.613 244.206C157.714 244.746 157.737 245.319 157.973 245.814C158.49 246.894 159.828 247.22 160.93 247.669C162.044 248.119 163.19 249.232 162.729 250.334C162.515 250.818 162.009 251.279 162.189 251.774C162.358 252.213 163.01 252.404 163.01 252.876C162.999 253.191 162.673 253.404 162.381 253.528C161.639 253.831 160.829 253.933 160.109 254.281C159.39 254.618 158.738 255.316 158.794 256.102C158.884 257.227 160.222 257.766 160.851 258.7C161.459 259.588 161.369 260.769 161.751 261.781C162.111 262.714 162.853 263.445 163.449 264.243C165.315 266.783 165.754 270.055 166.664 273.069C167.069 274.429 167.811 275.947 169.206 276.205C169.97 276.34 170.735 276.048 171.454 275.767C173.466 274.968 175.558 274.114 176.964 272.483C178.381 270.841 178.852 268.177 177.402 266.569C177.222 266.356 176.987 266.164 176.717 266.13C176.335 266.085 175.997 266.344 175.66 266.501C174.637 266.974 173.377 266.58 172.523 265.826C171.679 265.084 171.163 264.039 170.656 263.027C170.105 261.914 169.555 260.789 168.992 259.665C169.655 259.102 170.712 259.339 171.398 259.889C172.073 260.44 172.489 261.238 173.039 261.913C174.715 264.004 177.469 264.926 180.135 265.241C180.809 265.32 181.506 265.377 182.136 265.657C184.126 266.568 184.699 269.503 186.802 270.132C187.386 270.312 188.038 270.278 188.59 270.537C189.421 270.931 189.838 271.875 190.085 272.763C190.546 274.416 190.703 276.159 191.4 277.733C192.086 279.307 193.492 280.735 195.201 280.757C196.269 280.78 197.281 280.239 198.057 279.487V279.475C198.147 277.924 198.203 276.373 198.203 274.798C198.203 274.476 198.203 274.15 198.181 273.824Z" fill="#5A8E14"/>
<path d="M169.588 303.341C168.529 303.549 168.318 304.172 167.742 304.956C166.994 305.976 165.922 306.998 165.24 308.005C164.085 309.713 165.125 312.376 163.605 313.813C163.296 314.106 162.895 314.297 162.617 314.62C162.006 315.33 162.234 316.536 162.981 317.101C163.727 317.667 164.823 317.627 165.629 317.149C166.435 316.672 166.971 315.827 167.251 314.933C167.452 314.289 167.565 313.56 168.073 313.116C168.943 312.355 170.295 312.92 171.44 312.759C176.312 312.077 174.219 302.429 169.588 303.341Z" fill="#5A8E14"/>
<path d="M185.671 340.304L184.401 345.634C184.401 345.634 175.684 356.956 172.995 356.403C171.233 356.04 173.399 353.086 176.714 344.486L177.41 340.934L185.671 340.304Z" fill="#455A64"/>
<path d="M172.641 354.73C172.658 354.713 172.726 354.98 173.106 355.176C173.473 355.383 174.154 355.398 174.775 354.944C175.965 354.003 177.496 352.515 179.113 350.834C180.727 349.14 182.083 347.511 183.037 346.31C183.462 345.764 183.831 345.287 184.15 344.875C184.257 344.735 184.357 344.607 184.452 344.484C184.522 344.396 184.561 344.351 184.566 344.354C184.57 344.357 184.54 344.409 184.477 344.503C184.391 344.631 184.299 344.766 184.199 344.911C183.953 345.264 183.589 345.767 183.124 346.378C182.191 347.598 180.845 349.243 179.227 350.941C177.599 352.631 176.069 354.097 174.837 355.037C174.51 355.249 174.168 355.384 173.852 355.399C173.538 355.415 173.269 355.34 173.078 355.231C172.883 355.125 172.772 354.986 172.712 354.891C172.651 354.792 172.641 354.73 172.641 354.73Z" fill="#263238"/>
<path d="M173.876 351.091C173.87 351.076 174.141 350.979 174.592 351.012C175.041 351.041 175.653 351.221 176.235 351.583C176.825 351.935 177.247 352.432 177.43 352.845C177.617 353.257 177.633 353.54 177.618 353.541C177.591 353.549 177.536 353.277 177.33 352.895C177.129 352.512 176.723 352.058 176.153 351.716C175.59 351.366 175.009 351.178 174.581 351.122C174.151 351.062 173.88 351.118 173.876 351.091Z" fill="#263238"/>
<path d="M182.128 348.434C182.119 348.437 182.08 348.347 182.024 348.18C181.969 348.012 181.901 347.764 181.852 347.449C181.743 346.826 181.805 345.897 182.259 345.025C182.703 344.143 183.438 343.566 184.021 343.312C184.313 343.182 184.565 343.118 184.74 343.09C184.916 343.064 185.015 343.064 185.016 343.073C185.022 343.104 184.624 343.134 184.068 343.413C183.517 343.683 182.825 344.25 182.398 345.096C181.96 345.94 181.884 346.821 181.962 347.435C182.033 348.053 182.156 348.427 182.128 348.434Z" fill="#263238"/>
<path d="M185.116 341.209C185.154 341.223 184.957 341.967 184.794 342.909C184.636 343.854 184.388 344.602 184.34 344.586C184.306 344.572 184.481 343.825 184.64 342.879C184.803 341.933 185.072 341.193 185.116 341.209Z" fill="#263238"/>
<path d="M176.561 345.238C176.553 345.199 177.065 345.107 177.678 345.252C178.292 345.391 178.712 345.697 178.688 345.729C178.665 345.77 178.228 345.536 177.642 345.405C177.058 345.266 176.563 345.285 176.561 345.238Z" fill="#263238"/>
<path d="M176.382 346.151C176.369 346.113 176.801 345.99 177.324 346.117C177.848 346.239 178.178 346.542 178.15 346.571C178.124 346.609 177.776 346.382 177.288 346.269C176.801 346.151 176.388 346.197 176.382 346.151Z" fill="#263238"/>
<path d="M175.685 347.297C175.66 347.264 176.1 347.04 176.661 347.171C177.224 347.296 177.524 347.687 177.487 347.706C177.455 347.741 177.136 347.435 176.627 347.324C176.119 347.204 175.699 347.342 175.685 347.297Z" fill="#263238"/>
<path d="M177.16 344.856C177.154 344.83 177.563 344.747 178.184 344.506C178.494 344.384 178.855 344.22 179.236 344C179.426 343.891 179.622 343.767 179.814 343.63C179.992 343.498 180.187 343.306 180.18 343.099C180.176 342.887 179.915 342.779 179.716 342.831C179.506 342.88 179.336 343.041 179.177 343.19C178.856 343.492 178.582 343.781 178.359 344.03C177.914 344.528 177.667 344.861 177.647 344.847C177.638 344.842 177.69 344.75 177.795 344.594C177.901 344.438 178.06 344.218 178.275 343.958C178.49 343.697 178.758 343.398 179.077 343.086C179.235 342.935 179.413 342.75 179.681 342.682C179.93 342.609 180.317 342.745 180.337 343.092C180.333 343.418 180.095 343.607 179.904 343.756C179.702 343.897 179.503 344.019 179.307 344.128C178.915 344.345 178.542 344.501 178.222 344.611C177.902 344.72 177.637 344.786 177.451 344.822C177.267 344.857 177.163 344.865 177.16 344.856Z" fill="#263238"/>
<path d="M177.618 344.746C177.592 344.749 177.556 344.371 177.458 343.772C177.405 343.476 177.327 343.122 177.162 342.765C177.078 342.589 176.973 342.404 176.836 342.251C176.703 342.1 176.501 341.971 176.337 342.066C176.178 342.154 176.152 342.399 176.176 342.597C176.207 342.802 176.269 343.004 176.346 343.183C176.501 343.545 176.719 343.833 176.916 344.06C177.32 344.508 177.636 344.723 177.618 344.746C177.613 344.753 177.528 344.71 177.388 344.61C177.248 344.511 177.051 344.357 176.834 344.136C176.622 343.913 176.385 343.621 176.214 343.241C176.128 343.052 176.06 342.846 176.024 342.617C176.001 342.401 175.997 342.095 176.262 341.929C176.544 341.781 176.812 341.988 176.951 342.148C177.105 342.324 177.207 342.516 177.294 342.704C177.461 343.084 177.528 343.451 177.568 343.755C177.607 344.061 177.619 344.308 177.625 344.479C177.631 344.649 177.629 344.744 177.618 344.746Z" fill="#263238"/>
<path d="M227.44 342.779L227.48 335.67L214.165 335.509L213.995 345.908L214.82 345.972C218.492 346.22 233.506 346.976 235.971 346.262C238.721 345.463 227.44 342.779 227.44 342.779Z" fill="#455A64"/>
<path d="M213.811 345.6C213.811 345.606 213.89 345.615 214.04 345.628C214.237 345.643 214.453 345.658 214.697 345.676C215.354 345.713 216.162 345.757 217.116 345.811C219.159 345.911 221.983 346.011 225.103 346.053C228.225 346.095 231.052 346.071 233.096 346.027C234.051 346 234.86 345.976 235.518 345.957C235.761 345.946 235.978 345.936 236.176 345.927C236.326 345.918 236.405 345.911 236.405 345.905C236.405 345.9 236.325 345.897 236.175 345.894C235.977 345.894 235.761 345.894 235.516 345.894C234.858 345.899 234.049 345.905 233.095 345.913C231.05 345.928 228.225 345.934 225.106 345.892C221.986 345.849 219.163 345.768 217.12 345.698C216.165 345.665 215.357 345.637 214.7 345.614C214.456 345.607 214.239 345.601 214.041 345.596C213.89 345.593 213.811 345.595 213.811 345.6Z" fill="#263238"/>
<path d="M231.744 346.194C231.793 346.201 231.838 345.624 232.21 345.045C232.572 344.46 233.074 344.171 233.047 344.129C233.038 344.089 232.464 344.332 232.073 344.959C231.676 345.581 231.703 346.203 231.744 346.194Z" fill="#263238"/>
<path d="M227.838 344.135C227.876 344.16 228.067 343.933 228.265 343.63C228.463 343.326 228.593 343.06 228.556 343.036C228.518 343.011 228.327 343.238 228.129 343.541C227.931 343.845 227.801 344.111 227.838 344.135Z" fill="#263238"/>
<path d="M226.77 343.584C226.8 343.617 227.012 343.48 227.244 343.276C227.476 343.073 227.64 342.881 227.611 342.848C227.581 342.814 227.369 342.951 227.137 343.155C226.905 343.358 226.741 343.55 226.77 343.584Z" fill="#263238"/>
<path d="M226.799 342.406C227.183 342.406 227.495 342.37 227.495 342.325C227.495 342.28 227.183 342.244 226.799 342.244C226.415 342.244 226.104 342.28 226.104 342.325C226.104 342.37 226.415 342.406 226.799 342.406Z" fill="#263238"/>
<path d="M225.881 341.413C225.866 341.452 226.203 341.609 226.653 341.648C227.105 341.689 227.464 341.593 227.456 341.552C227.449 341.505 227.096 341.527 226.668 341.488C226.239 341.451 225.896 341.368 225.881 341.413Z" fill="#263238"/>
<path d="M228.306 342.995C228.305 343.013 228.633 343.058 229.162 343C229.427 342.972 229.739 342.913 230.076 342.811C230.244 342.754 230.418 342.712 230.6 342.603C230.685 342.547 230.78 342.469 230.815 342.339C230.852 342.211 230.785 342.067 230.69 341.995C229.877 341.561 229.052 342.011 228.744 342.43C228.574 342.643 228.495 342.853 228.457 342.997C228.421 343.143 228.423 343.227 228.432 343.228C228.462 343.24 228.495 342.892 228.831 342.503C228.998 342.313 229.248 342.129 229.568 342.037C229.871 341.952 230.302 341.933 230.587 342.12C230.721 342.222 230.666 342.381 230.514 342.469C230.372 342.559 230.19 342.612 230.031 342.669C229.706 342.776 229.403 342.845 229.147 342.887C228.633 342.972 228.306 342.969 228.306 342.995Z" fill="#263238"/>
<path d="M228.527 343.041C228.54 343.05 228.669 342.833 228.634 342.448C228.616 342.259 228.549 342.034 228.408 341.821C228.259 341.629 228.069 341.364 227.701 341.375C227.503 341.398 227.403 341.623 227.433 341.767C227.447 341.917 227.512 342.047 227.573 342.151C227.698 342.367 227.84 342.541 227.971 342.674C228.236 342.939 228.446 343.042 228.456 343.026C228.471 343.006 228.287 342.87 228.055 342.596C227.939 342.459 227.814 342.286 227.703 342.078C227.587 341.896 227.512 341.57 227.726 341.534C227.941 341.516 228.157 341.732 228.285 341.904C228.418 342.091 228.49 342.291 228.52 342.463C228.582 342.813 228.499 343.034 228.527 343.041Z" fill="#263238"/>
<path d="M214.129 341.96C214.132 341.991 214.511 341.929 215.111 342.008C215.707 342.081 216.532 342.337 217.246 342.919C217.959 343.504 218.373 344.263 218.563 344.832C218.759 345.405 218.773 345.788 218.804 345.786C218.813 345.785 218.82 345.689 218.807 345.517C218.796 345.345 218.758 345.095 218.671 344.797C218.504 344.204 218.091 343.404 217.348 342.794C216.604 342.186 215.737 341.941 215.124 341.894C214.814 341.868 214.562 341.881 214.391 341.904C214.22 341.926 214.127 341.951 214.129 341.96Z" fill="#263238"/>
<path d="M215.519 341.907C215.564 341.907 215.6 340.682 215.6 339.171C215.6 337.66 215.564 336.435 215.519 336.435C215.474 336.435 215.438 337.66 215.438 339.171C215.438 340.682 215.474 341.907 215.519 341.907Z" fill="#263238"/>
<path d="M220.515 344.585C220.509 344.627 221.375 344.78 222.457 344.803C223.539 344.829 224.41 344.714 224.406 344.672C224.402 344.625 223.532 344.667 222.46 344.642C221.389 344.619 220.521 344.539 220.515 344.585Z" fill="#263238"/>
<path d="M217.906 344.548C217.873 344.581 217.975 344.734 218.061 344.934C218.15 345.134 218.194 345.312 218.24 345.309C218.282 345.309 218.311 345.1 218.209 344.869C218.108 344.638 217.935 344.517 217.906 344.548Z" fill="#263238"/>
<path d="M216.958 343.33C216.925 343.361 217.009 343.5 217.145 343.642C217.281 343.783 217.418 343.873 217.45 343.842C217.482 343.811 217.398 343.671 217.262 343.53C217.126 343.388 216.99 343.299 216.958 343.33Z" fill="#263238"/>
<path d="M215.538 342.735C215.547 342.78 215.724 342.781 215.919 342.852C216.115 342.919 216.253 343.03 216.288 343C216.324 342.975 216.215 342.785 215.973 342.7C215.73 342.614 215.525 342.693 215.538 342.735Z" fill="#263238"/>
<path d="M214.526 342.442C214.509 342.484 214.585 342.553 214.695 342.597C214.805 342.642 214.908 342.644 214.924 342.602C214.941 342.561 214.865 342.491 214.755 342.447C214.645 342.403 214.543 342.401 214.526 342.442Z" fill="#263238"/>
<path d="M236.422 206.642L231.314 340.085L210.58 340.52L214.024 224.896L190.701 341.404H170.988L196.384 206.913L236.422 206.642Z" fill="#263238"/>
<path d="M218.8 211.497C218.85 211.505 218.755 212.345 218.562 213.697C218.368 215.048 218.076 216.91 217.732 218.963C217.548 219.986 217.43 220.976 217.139 221.861C216.861 222.744 216.352 223.474 215.785 223.898C215.228 224.338 214.664 224.516 214.28 224.57C213.89 224.623 213.676 224.579 213.677 224.56C213.651 224.486 214.595 224.576 215.621 223.698C216.129 223.276 216.568 222.604 216.818 221.759C217.077 220.92 217.188 219.928 217.371 218.903C217.716 216.85 218.049 214.994 218.307 213.654C218.566 212.314 218.751 211.489 218.8 211.497Z" fill="#455A64"/>
<path d="M214.487 212.137C214.532 212.17 214.362 212.384 214.459 212.737C214.506 212.904 214.622 213.097 214.806 213.183C214.983 213.274 215.234 213.227 215.424 213.062C215.613 212.894 215.693 212.652 215.625 212.464C215.563 212.27 215.387 212.131 215.228 212.062C214.891 211.92 214.657 212.061 214.629 212.011C214.587 211.991 214.821 211.707 215.306 211.816C215.528 211.871 215.806 212.025 215.941 212.347C216.084 212.672 215.949 213.095 215.666 213.336C215.39 213.586 214.954 213.665 214.649 213.481C214.348 213.306 214.231 213.011 214.205 212.783C214.161 212.288 214.473 212.092 214.487 212.137Z" fill="#455A64"/>
<path d="M203.351 214.041C203.261 214.07 202.959 213.221 203.079 212.139C203.19 211.055 203.665 210.289 203.747 210.337C203.845 210.382 203.544 211.167 203.442 212.178C203.328 213.187 203.455 214.018 203.351 214.041Z" fill="#455A64"/>
<path d="M205.844 213.881C205.752 213.907 205.465 213.034 205.546 211.92C205.621 210.806 206.027 209.982 206.115 210.02C206.215 210.056 205.98 210.892 205.911 211.946C205.833 212.998 205.949 213.86 205.844 213.881Z" fill="#455A64"/>
<path d="M227.275 214.425C227.172 214.398 227.338 213.515 227.391 212.421C227.451 211.327 227.377 210.432 227.481 210.415C227.575 210.396 227.818 211.299 227.756 212.439C227.7 213.58 227.366 214.454 227.275 214.425Z" fill="#455A64"/>
<path d="M229.982 214.275C229.883 214.233 230.206 213.361 230.278 212.24C230.363 211.12 230.163 210.213 230.268 210.184C230.355 210.149 230.731 211.069 230.643 212.266C230.564 213.463 230.063 214.322 229.982 214.275Z" fill="#455A64"/>
<path d="M207.533 151.125L220.334 150.103C220.414 148.608 220.307 142.826 220.307 142.826C220.307 142.826 225.633 141.998 225.699 136.672C225.764 131.347 224.841 119.119 224.841 119.119C218.677 116.47 211.562 117.365 206.245 121.457L205.456 122.064L207.533 151.125Z" fill="#FFBE9D"/>
<path d="M220.316 142.749C220.316 142.749 216.95 143.023 213.373 140.776C213.373 140.776 215.014 144.608 220.327 144.128L220.316 142.749Z" fill="#EB996E"/>
<path d="M222.768 127.466C222.782 127.868 222.453 128.211 222.035 128.233C221.617 128.255 221.265 127.949 221.251 127.547C221.237 127.145 221.565 126.802 221.983 126.779C222.402 126.757 222.754 127.064 222.768 127.466Z" fill="#263238"/>
<path d="M223.834 126.611C223.74 126.71 223.163 126.283 222.345 126.286C221.527 126.276 220.927 126.697 220.838 126.597C220.795 126.553 220.891 126.374 221.153 126.183C221.41 125.993 221.849 125.809 222.359 125.812C222.868 125.814 223.297 126.002 223.544 126.194C223.795 126.387 223.88 126.566 223.834 126.611Z" fill="#263238"/>
<path d="M214.502 127.658C214.516 128.06 214.188 128.403 213.769 128.425C213.351 128.448 212.999 128.141 212.985 127.739C212.971 127.337 213.299 126.994 213.717 126.971C214.137 126.949 214.488 127.256 214.502 127.658Z" fill="#263238"/>
<path d="M215.789 126.763C215.695 126.862 215.118 126.436 214.301 126.438C213.483 126.429 212.882 126.85 212.794 126.75C212.751 126.706 212.846 126.527 213.108 126.336C213.366 126.146 213.805 125.962 214.315 125.964C214.825 125.967 215.253 126.155 215.5 126.347C215.75 126.539 215.835 126.719 215.789 126.763Z" fill="#263238"/>
<path d="M218.76 132.832C218.756 132.786 219.265 132.697 220.089 132.592C220.298 132.571 220.496 132.529 220.531 132.387C220.58 132.236 220.492 132.011 220.392 131.767C220.195 131.261 219.99 130.731 219.773 130.176C218.915 127.91 218.294 126.048 218.385 126.014C218.476 125.98 219.246 127.789 220.104 130.054C220.311 130.613 220.509 131.146 220.696 131.655C220.775 131.893 220.911 132.162 220.804 132.475C220.748 132.631 220.595 132.744 220.461 132.78C220.327 132.821 220.209 132.824 220.106 132.83C219.277 132.875 218.763 132.878 218.76 132.832Z" fill="#263238"/>
<path d="M216.352 133.398C216.485 133.391 216.486 134.278 217.247 134.909C218.005 135.541 218.953 135.442 218.959 135.566C218.972 135.622 218.748 135.739 218.349 135.75C217.957 135.763 217.384 135.637 216.919 135.251C216.455 134.865 216.256 134.349 216.226 133.985C216.191 133.613 216.291 133.393 216.352 133.398Z" fill="#263238"/>
<path d="M216.001 123.557C215.92 123.779 215.103 123.674 214.144 123.789C213.181 123.886 212.407 124.167 212.279 123.967C212.223 123.872 212.357 123.663 212.67 123.447C212.981 123.232 213.475 123.027 214.052 122.963C214.628 122.901 215.156 122.992 215.505 123.134C215.859 123.276 216.036 123.451 216.001 123.557Z" fill="#263238"/>
<path d="M223.533 124.243C223.389 124.428 222.825 124.235 222.147 124.227C221.469 124.194 220.895 124.352 220.763 124.157C220.705 124.063 220.796 123.877 221.047 123.701C221.294 123.526 221.707 123.382 222.173 123.396C222.639 123.411 223.042 123.58 223.278 123.77C223.518 123.96 223.596 124.152 223.533 124.243Z" fill="#263238"/>
<path d="M206.112 127.581C206.021 127.542 202.453 126.499 202.569 130.139C202.686 133.78 206.317 132.913 206.32 132.807C206.323 132.703 206.112 127.581 206.112 127.581Z" fill="#FFBE9D"/>
<path d="M205.164 131.464C205.147 131.453 205.102 131.51 204.996 131.563C204.893 131.614 204.714 131.653 204.522 131.588C204.133 131.459 203.79 130.859 203.751 130.204C203.731 129.872 203.79 129.554 203.899 129.289C204.002 129.019 204.168 128.828 204.361 128.788C204.552 128.737 204.693 128.849 204.74 128.949C204.793 129.05 204.772 129.123 204.791 129.128C204.802 129.137 204.868 129.065 204.833 128.916C204.816 128.843 204.771 128.76 204.683 128.692C204.593 128.623 204.464 128.592 204.329 128.61C204.049 128.638 203.804 128.905 203.684 129.196C203.549 129.489 203.475 129.846 203.497 130.218C203.544 130.951 203.941 131.625 204.472 131.76C204.73 131.818 204.941 131.734 205.049 131.645C205.16 131.552 205.176 131.47 205.164 131.464Z" fill="#EB996E"/>
<path d="M226.88 114.519C226.107 112.992 224.601 111.856 222.92 111.533C221.239 111.21 219.419 111.706 218.134 112.837C217.329 111.234 215.696 110.075 213.917 109.844C212.138 109.613 210.263 110.317 209.076 111.662C208.055 112.818 207.526 114.39 206.33 115.363C205.295 116.206 203.892 116.486 202.85 117.321C201.704 118.24 201.133 119.824 201.428 121.262C201.723 122.702 202.87 123.933 204.286 124.328C203.144 126.388 204.214 129.342 206.41 130.192L206.941 129.972C208.956 127.761 209.416 124.271 208.044 121.612C208.109 121.616 208.171 121.605 208.234 121.603C208.936 121.986 209.742 122.177 210.54 122.131C211.813 122.057 213.038 121.377 213.776 120.337C215.229 121.385 217.313 121.473 218.85 120.55C219.092 120.404 219.333 120.232 219.614 120.202C219.949 120.167 220.266 120.34 220.567 120.487C221.366 120.88 222.264 121.136 223.145 121.008C223.966 120.889 224.756 120.378 225.081 119.623C225.1 119.62 225.121 119.619 225.141 119.615C226.168 119.43 226.991 118.554 227.273 117.55C227.555 116.547 227.351 115.45 226.88 114.519Z" fill="#263238"/>
<path d="M234.963 178.438L235.428 154.44C231.17 150.254 228.896 149.003 222.966 148.302C222.34 148.228 221.807 148.173 221.352 148.123L220.844 144.171L206.298 143.346L207.025 148.037C204.915 148.127 203.168 148.776 201.374 149.12C195.723 150.203 191.656 154.318 190.526 158.119C189.596 161.249 183.624 184.44 183.624 184.44L182.409 191.441L195.748 186.599L195.738 191.639L195.771 210.157H236.286C236.393 205.743 234.963 178.438 234.963 178.438Z" fill="#71B219"/>
<g opacity="0.2">
<path opacity="0.2" d="M234.963 178.438L235.428 154.44C231.17 150.254 228.896 149.003 222.966 148.302C222.34 148.228 221.807 148.173 221.352 148.123L220.844 144.171L206.298 143.346L207.025 148.037C204.915 148.127 203.168 148.776 201.374 149.12C195.723 150.203 191.656 154.318 190.526 158.119C189.596 161.249 183.624 184.44 183.624 184.44L182.409 191.441L195.748 186.599L195.738 191.639L195.771 210.157H236.286C236.393 205.743 234.963 178.438 234.963 178.438Z" fill="black"/>
</g>
<path d="M188.505 184.776L208.475 181.938L212.271 188.738L193.706 197.107C192.671 197.573 191.548 197.815 190.413 197.815C187.162 197.815 184.233 195.85 182.999 192.843L182.398 191.378L188.505 184.776Z" fill="#71B219"/>
<g opacity="0.2">
<g opacity="0.2">
<path opacity="0.2" d="M188.505 184.776L208.475 181.938L212.271 188.738L193.706 197.107C192.671 197.573 191.548 197.815 190.413 197.815C187.162 197.815 184.233 195.85 182.999 192.843L182.398 191.378L188.505 184.776Z" fill="black"/>
</g>
</g>
<path d="M229.31 149.767C229.31 149.767 234.953 151.69 237.322 157.117C238.869 160.658 241.142 177.703 241.142 177.703L244.008 183.23C244.695 184.556 245.053 186.027 245.053 187.52V188.363C245.053 190.505 244.315 192.582 242.963 194.244C241.374 196.197 239.065 197.422 236.558 197.647C233.697 197.903 230.237 198.016 229.498 197.171C228.194 195.681 226.238 191.676 226.238 191.676L234.58 187.244L230.988 180.592L229.31 149.767Z" fill="#71B219"/>
<g opacity="0.2">
<g opacity="0.2">
<path opacity="0.2" d="M229.31 149.767C229.31 149.767 234.953 151.69 237.322 157.117C238.869 160.658 241.142 177.703 241.142 177.703L244.008 183.23C244.695 184.556 245.053 186.027 245.053 187.52V188.363C245.053 190.505 244.315 192.582 242.963 194.244C241.374 196.197 239.065 197.422 236.558 197.647C233.697 197.903 230.237 198.016 229.498 197.171C228.194 195.681 226.238 191.676 226.238 191.676L234.58 187.244L230.988 180.592L229.31 149.767Z" fill="black"/>
</g>
</g>
<path d="M195.099 196.479C195.094 196.469 195.205 196.407 195.421 196.298C195.671 196.176 195.986 196.023 196.377 195.833C197.255 195.423 198.466 194.857 199.961 194.159C203.059 192.744 207.329 190.795 212.197 188.573L212.114 188.824C211.358 187.472 210.575 186.07 209.772 184.635C209.273 183.742 208.783 182.861 208.317 182.026L208.493 182.118C202.713 182.685 197.591 183.188 193.865 183.554C192.052 183.717 190.581 183.848 189.516 183.943C189.034 183.979 188.645 184.009 188.342 184.032C188.073 184.048 187.932 184.051 187.931 184.04C187.929 184.028 188.069 184.002 188.334 183.964C188.636 183.925 189.023 183.875 189.502 183.812C190.564 183.69 192.031 183.521 193.84 183.313C197.564 182.917 202.68 182.373 208.457 181.758L208.575 181.746L208.633 181.85C209.1 182.685 209.591 183.564 210.09 184.458C210.891 185.894 211.673 187.297 212.427 188.65L212.522 188.822L212.344 188.901C207.456 191.077 203.168 192.987 200.056 194.372C198.543 195.03 197.317 195.563 196.428 195.948C196.027 196.115 195.702 196.251 195.447 196.357C195.223 196.447 195.103 196.489 195.099 196.479Z" fill="#263238"/>
<path d="M198.644 182.803C198.745 182.803 198.826 179.233 198.826 174.829C198.826 170.425 198.745 166.855 198.644 166.855C198.543 166.855 198.462 170.425 198.462 174.829C198.462 179.233 198.543 182.803 198.644 182.803Z" fill="#263238"/>
<path d="M233.015 188.133C233.013 188.109 233.228 188.069 233.622 188.038C234.014 188.015 234.594 187.974 235.306 188.139C235.654 188.227 236.058 188.386 236.362 188.737C236.645 189.09 236.83 189.523 236.914 190.009C236.993 190.491 236.969 191.024 236.778 191.53C236.592 192.039 236.224 192.496 235.767 192.826C234.83 193.477 233.779 193.664 232.875 193.857C231.952 194.035 231.108 194.099 230.399 194.098C228.97 194.113 228.126 193.751 228.152 193.706C228.167 193.657 229 193.918 230.393 193.839C231.086 193.806 231.911 193.717 232.807 193.527C233.697 193.321 234.716 193.115 235.552 192.53C236.398 191.949 236.728 190.926 236.58 190.061C236.519 189.633 236.35 189.225 236.127 188.93C235.897 188.644 235.555 188.483 235.236 188.388C234.585 188.204 234.01 188.199 233.623 188.18C233.234 188.168 233.016 188.16 233.015 188.133Z" fill="#263238"/>
<path d="M236.327 197.787C236.33 197.832 235.787 197.937 234.892 197.957C234.004 197.973 232.738 197.889 231.443 197.385C230.805 197.13 230.213 196.839 229.725 196.471C229.238 196.103 228.894 195.663 228.664 195.272C228.215 194.48 228.117 193.925 228.153 193.914C228.211 193.89 228.4 194.415 228.882 195.133C229.128 195.487 229.464 195.874 229.925 196.2C230.383 196.524 230.96 196.798 231.576 197.044C232.808 197.524 234.025 197.649 234.897 197.698C235.773 197.745 236.323 197.732 236.327 197.787Z" fill="#263238"/>
<path d="M240.316 180.488C240.355 180.512 239.971 180.97 239.33 181.672C238.688 182.375 237.785 183.33 236.771 184.37C235.757 185.41 234.825 186.338 234.137 186.997C233.45 187.655 233.006 188.045 232.97 188.01C232.934 187.975 233.311 187.521 233.952 186.816C234.592 186.111 235.495 185.155 236.509 184.114C238.535 182.037 240.245 180.403 240.316 180.488Z" fill="#263238"/>
<path d="M231.221 176.766C231.322 176.766 231.403 174.724 231.403 172.207C231.403 169.689 231.322 167.648 231.221 167.648C231.12 167.648 231.039 169.689 231.039 172.207C231.039 174.724 231.12 176.766 231.221 176.766Z" fill="#263238"/>
<path d="M234.197 152.857C234.197 152.963 225.21 153.049 214.128 153.049C203.042 153.049 194.057 152.963 194.057 152.857C194.057 152.751 203.042 152.666 214.128 152.666C225.21 152.666 234.197 152.752 234.197 152.857Z" fill="#FAFAFA"/>
<path d="M214.029 148.422C217.851 148.422 220.95 148.337 220.95 148.231C220.95 148.125 217.851 148.04 214.029 148.04C210.206 148.04 207.107 148.125 207.107 148.231C207.107 148.337 210.206 148.422 214.029 148.422Z" fill="#263238"/>
<path d="M238.563 160.967C238.563 161.073 227.65 161.159 214.19 161.159C200.726 161.159 189.814 161.073 189.814 160.967C189.814 160.861 200.726 160.775 214.19 160.775C227.65 160.775 238.563 160.861 238.563 160.967Z" fill="#FAFAFA"/>
<path d="M240.068 169.304C240.068 169.41 228.273 169.496 213.727 169.496C199.176 169.496 187.383 169.41 187.383 169.304C187.383 169.198 199.176 169.113 213.727 169.113C228.273 169.112 240.068 169.198 240.068 169.304Z" fill="#FAFAFA"/>
<path d="M241.013 177.41C241.013 177.516 228.566 177.601 213.215 177.601C197.859 177.601 185.415 177.515 185.415 177.41C185.415 177.304 197.859 177.218 213.215 177.218C228.566 177.218 241.013 177.304 241.013 177.41Z" fill="#FAFAFA"/>
<path d="M244.775 190.61C244.775 190.716 230.941 190.801 213.881 190.801C196.814 190.801 182.984 190.715 182.984 190.61C182.984 190.505 196.814 190.418 213.881 190.418C230.941 190.418 244.775 190.504 244.775 190.61Z" fill="#FAFAFA"/>
<path d="M235.9 199.873C235.9 199.979 226.775 200.064 215.521 200.064C204.264 200.064 195.141 199.978 195.141 199.873C195.141 199.768 204.264 199.682 215.521 199.682C226.775 199.681 235.9 199.767 235.9 199.873Z" fill="#FAFAFA"/>
<path d="M226.465 178.67L226.031 178.345C223.784 176.66 220.932 176.001 218.173 176.528C215.925 176.959 213.821 177.947 212.053 179.402L208.632 182.218L212.271 188.738L214.747 185.272C214.747 185.272 217.057 188.408 217.47 188.078C217.883 187.748 218.378 186.757 218.378 186.757L216.728 184.447L220.689 185.272L226.465 182.631L223.989 179.496L226.465 180.321V178.67Z" fill="#FFBE9D"/>
<path d="M220.366 178.072L207.657 193.464L208.632 194.52L229.257 191.375L239.485 175.984L238.535 175.129L220.366 178.072Z" fill="#263238"/>
<path d="M233.848 182.134C233.037 182.134 232.306 182.63 232.014 183.386C231.708 184.183 231.261 185.113 230.765 185.384C229.848 185.883 228.265 186.282 227.432 185.875C226.599 185.467 223.266 182.467 222.683 182.8C222.099 183.134 221.599 183.884 222.183 184.55C222.766 185.217 225.849 187.216 225.266 187.882C224.682 188.549 218.184 185.615 217.184 185.874C216.184 186.133 215.601 186.748 216.184 187.149C216.767 187.55 221.183 189.216 221.433 189.799C221.433 189.799 214.767 188.049 214.517 188.466C214.267 188.883 213.851 189.549 214.517 189.799C215.184 190.049 220.933 191.548 221.433 191.799C221.933 192.049 223.656 192.549 224.002 192.549C224.184 192.549 225.489 192.986 226.687 193.4C228.037 193.868 229.51 193.829 230.833 193.289L231.508 193.015C232.558 192.587 233.219 191.537 233.151 190.405L233.015 188.133L233.742 186.257L233.848 182.134Z" fill="#FFBE9D"/>
<path d="M239.523 176.124C239.525 176.137 239.394 176.168 239.143 176.217C238.85 176.268 238.485 176.333 238.04 176.413C237.029 176.575 235.653 176.796 233.975 177.066C232.241 177.33 230.199 177.642 227.94 177.987C226.804 178.159 225.613 178.34 224.379 178.526C223.164 178.73 221.903 179.07 220.927 179.924C219.95 180.768 219.21 181.852 218.412 182.813C217.631 183.787 216.876 184.728 216.157 185.626C214.72 187.404 213.422 189.011 212.321 190.376C211.243 191.69 210.359 192.767 209.709 193.558C209.416 193.904 209.177 194.186 208.985 194.412C208.816 194.605 208.723 194.702 208.713 194.694C208.703 194.686 208.777 194.573 208.927 194.366C209.104 194.128 209.327 193.832 209.597 193.469C210.224 192.66 211.077 191.558 212.117 190.214C213.202 188.836 214.479 187.212 215.892 185.415C216.607 184.513 217.356 183.568 218.132 182.589C218.926 181.628 219.655 180.544 220.691 179.644C221.738 178.728 223.09 178.373 224.319 178.172C225.556 177.993 226.751 177.819 227.891 177.654C230.155 177.338 232.2 177.052 233.938 176.809C235.622 176.587 237.005 176.405 238.019 176.271C238.469 176.22 238.837 176.177 239.132 176.143C239.387 176.119 239.522 176.112 239.523 176.124Z" fill="#455A64"/>
<path d="M229.876 179.497C229.663 179.624 229.444 179.758 229.304 179.961C229.163 180.165 229.123 180.46 229.279 180.653C229.476 180.898 229.877 180.854 230.129 180.667C230.291 180.547 230.42 180.373 230.459 180.174C230.498 179.975 230.437 179.753 230.283 179.623C230.128 179.492 229.881 179.474 229.723 179.601" fill="#FAFAFA"/>
<path d="M169.669 144.886L165.933 138.302C167.585 135.62 168.54 132.461 168.54 129.08C168.54 119.353 160.656 111.469 150.93 111.469C141.204 111.469 133.32 119.353 133.32 129.08C133.32 138.805 141.204 146.69 150.93 146.69C154.991 146.69 158.728 145.311 161.707 143.002L161.701 143.01L169.669 144.886Z" fill="#71B219"/>
<path d="M152.022 136.176L151.997 138.28L150.118 138.256L150.144 136.208C148.286 136.072 146.508 135.468 145.486 134.647L146.547 132.368C147.478 133.075 148.824 133.599 150.175 133.747L150.214 130.61C148.135 130.077 145.815 129.353 145.849 126.666C145.874 124.675 147.341 122.984 150.313 122.683L150.339 120.597L152.218 120.621L152.192 122.669C153.6 122.799 154.966 123.192 155.991 123.862L155.023 126.161C154.071 125.605 153.099 125.273 152.161 125.148L152.121 128.342C154.199 128.856 156.483 129.581 156.45 132.229C156.425 134.184 154.976 135.857 152.022 136.176ZM150.248 127.85L150.281 125.182C149.283 125.395 148.882 125.935 148.874 126.555C148.866 127.212 149.425 127.577 150.248 127.85ZM153.423 132.418C153.431 131.76 152.891 131.397 152.086 131.104L152.054 133.696C152.995 133.502 153.415 133.019 153.423 132.418Z" fill="white"/>
</svg>
