<svg width="183" height="50" viewBox="0 0 183 50" fill="none" xmlns="http://www.w3.org/2000/svg">
<g clip-path="url(#clip0_585_6445)">
<path d="M14.2127 24.3503V31.826H13.0392V40.5746H12.2418V31.826H11.0771V24.3503H12.2418V15.6018H13.0392V24.3503H14.2127Z" fill="white"/>
<path d="M18.4144 22.6113V39.8844H17.2498V49.9594H16.4524V39.8844H15.2788V22.6113H16.4524V15.6914H17.2498V22.6113H18.4144Z" fill="white"/>
<path d="M22.6249 13.1727V18.7839H21.4512V26.412H20.6539V18.7839H19.4893V13.1727H20.6539V5.81348H21.4512V13.1727H22.6249Z" fill="white"/>
<path d="M26.8265 22.1723V30.7057H25.6619V36.8549H24.8645V30.7057H23.6909V22.1723H24.8645V16.0232H25.6619V22.1723H26.8265Z" fill="white"/>
<path d="M35.2478 19.1693V21.975H34.0743V25.2646H33.277V21.975H32.1123V19.1693H33.277V15.8796H34.0743V19.1693H35.2478Z" fill="white"/>
<path d="M10.0018 14.8579V23.8663H8.82818V28.3661H8.0398V23.8663H6.86621V14.8579H8.0398V10.3491H8.82818V14.8579H10.0018Z" fill="white"/>
<path d="M31.0375 16.0232V31.3332H29.8638V40.8166H29.0754V31.3332H27.9019V16.0232H29.0754V5.23096H29.8638V16.0232H31.0375Z" fill="white"/>
<path d="M28.6812 45.5495C28.6812 43.1742 31.3688 42.8601 34.2177 42.4478C35.629 42.3615 37.0188 42.059 38.3388 41.5517C38.6419 41.4224 38.9002 41.2076 39.0825 40.933C39.1722 40.7432 39.2007 40.5302 39.1631 40.3235C39.0916 39.921 38.9681 39.5291 38.7956 39.1583C38.6883 38.8893 38.5898 38.6383 38.5092 38.3784C38.3966 38.0193 38.3512 37.6425 38.3747 37.2668C38.3916 36.921 38.4705 36.5809 38.6077 36.2629C38.6792 36.1017 38.7689 35.9404 38.8495 35.7791C38.9318 35.6425 39.0012 35.4985 39.0554 35.3488C39.0135 35.2657 38.9625 35.1875 38.9033 35.1157C38.6549 34.8137 38.4993 34.4464 38.4553 34.058C38.4666 33.6193 38.6035 33.1932 38.8495 32.8299C38.9209 32.7105 38.9811 32.5844 39.0286 32.4534C39.0269 32.3006 38.9998 32.1491 38.948 32.0053C38.8836 31.8021 38.8298 31.5956 38.7868 31.3868C38.7038 30.9284 38.6887 30.4602 38.7418 29.9974C38.784 29.5691 38.9287 29.1572 39.1631 28.7963C39.4935 28.3738 39.925 28.0409 40.4173 27.8282C40.6351 27.7181 40.8445 27.5923 41.0444 27.4518C41.282 27.2946 41.4713 27.0742 41.591 26.8153C41.6536 26.6601 41.6536 26.4865 41.591 26.3313C41.1468 25.525 40.5609 24.8054 39.862 24.2069C38.6883 23.0147 37.389 21.6881 36.9949 20.1732C36.8108 19.4232 36.9301 18.6308 37.3264 17.9682C37.402 17.8141 37.4678 17.6554 37.5234 17.4931C37.6121 17.2009 37.6121 16.8889 37.5234 16.5967C37.3559 15.9148 37.1061 15.2556 36.7798 14.6337C36.4842 14.0242 36.0992 13.2891 35.6959 12.5272C34.8801 11.087 34.1705 9.58908 33.5727 8.04539C33.2711 7.24834 33.2521 6.37183 33.519 5.56246C33.5659 5.44869 33.5901 5.32693 33.5906 5.20391C33.4873 4.85056 33.2777 4.53757 32.9904 4.30753C32.5306 3.88281 32.0078 3.53204 31.4405 3.26776C29.1929 2.39052 26.8177 1.88492 24.4078 1.77081C21.3363 1.483 18.2428 1.52509 15.1802 1.89632C12.2278 2.27218 9.41282 3.36798 6.98286 5.08739C4.76986 6.73063 3.14059 9.03933 2.33326 11.6757C1.51302 14.444 1.34433 17.3647 1.84048 20.2091C2.64459 24.9207 4.56455 29.3713 7.43976 33.1885C7.52619 33.2916 7.60696 33.3993 7.68167 33.5112C8.20773 34.0954 8.60994 34.7803 8.86403 35.5245C9.11808 36.2686 9.21873 37.0566 9.15989 37.8407V49.9774H7.59211V37.8228C7.63617 37.2112 7.55741 36.5974 7.36047 36.0168C7.1635 35.4365 6.85233 34.9015 6.44533 34.4434L6.18554 34.1028C3.15472 30.082 1.13586 25.3904 0.299586 20.4242C-0.235782 17.3464 -0.0518252 14.1864 0.837095 11.1917C1.74398 8.23658 3.57082 5.64873 6.05114 3.8056C8.68493 1.9386 11.7367 0.747402 14.9383 0.33665C18.1222 -0.05332 21.3385 -0.104412 24.5332 0.184256C27.1326 0.317172 29.6927 0.874283 32.1124 1.83357C32.8314 2.17096 33.4934 2.61856 34.0744 3.1602C34.6061 3.63345 34.9785 4.25961 35.1405 4.95292C35.1882 5.30975 35.1482 5.67278 35.024 6.01063C34.8368 6.51672 34.8368 7.0732 35.024 7.57929C35.5921 9.04264 36.2657 10.4626 37.0399 11.8281C37.4429 12.5989 37.837 13.3429 38.1418 13.9794C38.5356 14.7161 38.8365 15.4989 39.0378 16.3099C39.1722 16.8571 39.1539 17.4308 38.9839 17.9682C38.9037 18.1943 38.8111 18.4158 38.7063 18.6315C38.487 18.9744 38.404 19.3868 38.4733 19.7878C38.7597 20.8903 39.9067 22.0556 40.9459 23.1044C41.8349 23.8654 42.5521 24.8064 43.0511 25.8652C43.2186 26.3846 43.1834 26.9482 42.9526 27.4428C42.722 27.95 42.3603 28.3863 41.9045 28.7067C41.6445 28.8972 41.3689 29.0651 41.0803 29.2086C40.8174 29.3177 40.5795 29.4793 40.3814 29.6837C40.2931 29.8379 40.2382 30.0089 40.2202 30.1857C40.1762 30.4828 40.1762 30.7849 40.2202 31.082C40.2202 31.2613 40.3008 31.4226 40.3367 31.5661C40.4958 31.9679 40.5299 32.4083 40.4353 32.8299C40.3589 33.0875 40.2505 33.3344 40.1125 33.5649C40.0355 33.6902 39.9693 33.8223 39.9155 33.9593L40.0766 34.2014C40.286 34.4626 40.4303 34.7698 40.4979 35.0977C40.5391 35.5992 40.406 36.0992 40.1217 36.514C40.0591 36.6305 39.9961 36.7471 39.9426 36.8724C39.8743 37.0221 39.8349 37.1833 39.8261 37.3478C39.8197 37.5478 39.8468 37.7478 39.9067 37.9393C39.9605 38.1274 40.0499 38.3425 40.1396 38.5756C40.3659 39.0724 40.5253 39.5967 40.6144 40.1355C40.6922 40.6608 40.601 41.1974 40.3547 41.6682C40.0298 42.234 39.5343 42.6826 38.9392 42.9499C37.4636 43.5583 35.8993 43.9245 34.3073 44.0344C32.1662 44.3214 30.1594 44.5812 30.1415 45.5943V49.9953H28.5737V45.5851L28.6812 45.5495Z" fill="white"/>
<path d="M63.5058 20.3704V11.9176L59.3488 18.8824H57.8975L53.7406 12.0789V20.3704H50.6768V6.24363H53.3644L58.6499 15.0191L63.8549 6.24363H66.5425V20.3704H63.5058ZM70.0814 6.24363H73.3244V15.4493L80.0704 6.24363H83.1346V20.3704H79.9092V11.1916L73.1632 20.3704H70.0814V6.24363ZM92.7562 6.24363C93.8757 6.21571 94.9881 6.42969 96.0171 6.87106C96.8885 7.24254 97.6282 7.86705 98.1406 8.66381C98.6488 9.46715 98.9106 10.4022 98.893 11.3529C98.9082 12.3033 98.6467 13.2376 98.1406 14.042C97.6282 14.8387 96.8885 15.4633 96.0171 15.8347C94.986 16.2688 93.8746 16.4796 92.7562 16.4532H89.9162V20.3435H86.6465V6.24363H92.7562ZM92.5771 13.809C93.3752 13.8683 94.1688 13.6429 94.8167 13.1725C95.0729 12.9524 95.2749 12.6762 95.4069 12.3652C95.5392 12.0543 95.5976 11.7171 95.5783 11.3798C95.5952 11.0428 95.5353 10.7064 95.4034 10.396C95.2714 10.0854 95.0708 9.80888 94.8167 9.58705C94.1667 9.12092 93.3749 8.89588 92.5771 8.95064H89.8894V13.8538L92.5771 13.809Z" fill="white"/>
<path d="M62.9054 30.2842H58.3814V41.7488H55.156V30.2842H50.6768V27.5951H62.9233V30.2842H62.9054ZM71.076 27.5951C72.1951 27.5716 73.3065 27.7854 74.3369 28.2225C74.9767 28.5283 75.5454 28.9654 76.0054 29.5053C76.465 30.0453 76.8063 30.6761 77.0066 31.3567C77.2068 32.0373 77.2617 32.7525 77.1674 33.4557C77.0735 34.1589 76.8324 34.8344 76.4601 35.4382C75.9494 36.2364 75.2093 36.8614 74.3369 37.2311C73.304 37.6583 72.1933 37.8657 71.076 37.8407H68.2272V41.7396H64.9659V27.613L71.076 27.5951ZM70.8968 35.1694C71.6943 35.2227 72.4858 34.9977 73.1365 34.533C73.3927 34.3129 73.5947 34.0366 73.7267 33.7257C73.859 33.4147 73.9174 33.0775 73.898 32.7402C73.9146 32.4033 73.8548 32.0669 73.7231 31.7564C73.5912 31.4458 73.3906 31.1693 73.1365 30.9475C72.4879 30.4786 71.695 30.2533 70.8968 30.3111H68.2092V35.2142L70.8968 35.1694ZM90.3015 39.1044V41.7308H79.3719V27.613H90.0418V30.2394H82.6148V33.3139H89.1729V35.8505H82.6148V39.1223L90.3015 39.1044ZM92.9445 27.5951H96.1966V36.8009L102.933 27.5951H105.998V41.7308H102.772V32.5609L96.0354 41.7488H92.9445V27.613V27.5951ZM99.4663 26.6987C96.8772 26.6987 95.5783 25.6679 95.5515 23.6152H97.7912C97.7912 24.5923 98.3736 25.0853 99.4663 25.0853C99.908 25.1157 100.345 24.9816 100.694 24.7088C100.842 24.5692 100.959 24.3993 101.037 24.2106C101.114 24.022 101.15 23.819 101.142 23.6152H103.381C103.401 24.0482 103.322 24.4799 103.149 24.8775C102.977 25.2752 102.716 25.6282 102.387 25.9099C101.532 26.499 100.501 26.7774 99.4663 26.6987ZM123.978 39.0776V44.7248H120.95V41.7935H110.988V44.7248H107.96V39.1315H108.524C109.42 39.1315 109.975 38.4861 110.316 37.2667C110.73 35.5706 110.946 33.832 110.961 32.0859L111.122 27.6578H121.971V39.1315L123.978 39.0776ZM113.872 32.3369C113.828 33.7555 113.685 35.1693 113.442 36.5678C113.325 37.4755 112.986 38.3403 112.457 39.0864H118.773V30.2842H113.926L113.872 32.3369ZM126.182 27.613H129.425V36.8188L136.162 27.613H139.235V41.7488H136.001V32.5609L129.264 41.7488H126.182V27.613ZM155.692 27.613V41.7488H152.395V35.9583H145.972V41.7488H142.702V27.613H145.972V33.1884H152.395V27.613H155.692ZM169.175 30.3021H162.456V41.7667H159.204V27.613H169.175V30.3021ZM178.009 38.7368H171.451L170.206 41.7667H166.855L173.126 27.6309H176.36L182.676 41.7667H179.272L178.018 38.7368H178.009ZM176.978 36.254L174.739 30.8758L172.499 36.254H176.978Z" fill="white"/>
</g>
<defs>
<clipPath id="clip0_585_6445">
<rect width="183" height="50" fill="white" transform="translate(0 0.000244141)"/>
</clipPath>
</defs>
</svg>
