<svg width="271" height="74" viewBox="0 0 271 74" fill="none" xmlns="http://www.w3.org/2000/svg">
<path d="M21.0482 36.0416V47.1067H19.3101V60.0558H18.1293V47.1067H16.4045V36.0416H18.1293V23.0925H19.3101V36.0416H21.0482Z" fill="#4F6EB6"/>
<path d="M27.2708 33.4677V59.0343H25.5461V73.947H24.3652V59.0343H22.6272V33.4677H24.3652V23.2252H25.5461V33.4677H27.2708Z" fill="#4F6EB6"/>
<path d="M33.5064 19.497V27.8025H31.7684V39.0931H30.5876V27.8025H28.8628V19.497H30.5876V8.60435H31.7684V19.497H33.5064Z" fill="#4F6EB6"/>
<path d="M39.7288 32.8176V45.4483H38.0041V54.5498H36.8232V45.4483H35.0852V32.8176H36.8232V23.7161H38.0041V32.8176H39.7288Z" fill="#FF7D14"/>
<path d="M52.2003 28.373V32.5257H50.4622V37.3949H49.2814V32.5257H47.5566V28.373H49.2814V23.5038H50.4622V28.373H52.2003Z" fill="#FF7D14"/>
<path d="M14.8126 21.9913V35.3251H13.0745V41.9854H11.907V35.3251H10.1689V21.9913H11.907V15.3177H13.0745V21.9913H14.8126Z" fill="#FF7D14"/>
<path d="M45.9647 23.7161V46.377H44.2266V60.414H43.0591V46.377H41.321V23.7161H43.0591V7.74196H44.2266V23.7161H45.9647Z" fill="#4F6EB6"/>
<path d="M42.4752 67.4193C42.4752 63.9034 46.4554 63.439 50.6745 62.8287C52.7646 62.7006 54.8228 62.2532 56.7775 61.502C57.2262 61.311 57.6091 60.9927 57.8787 60.5865C58.0119 60.3057 58.0537 59.9902 57.9982 59.6843C57.8923 59.0883 57.7094 58.5085 57.4542 57.9596C57.295 57.5615 57.149 57.1901 57.0296 56.8053C56.8631 56.2737 56.7957 55.7161 56.8306 55.1601C56.8555 54.6481 56.9724 54.1448 57.1756 53.6741C57.2818 53.4353 57.4144 53.1965 57.5338 52.9577C57.656 52.7559 57.7583 52.5426 57.839 52.3209C57.7767 52.1979 57.701 52.0822 57.6134 51.9759C57.2458 51.529 57.0154 50.9853 56.95 50.4103C56.9668 49.7611 57.1694 49.1303 57.5338 48.5927C57.6398 48.4158 57.7286 48.2292 57.7991 48.0354C57.7966 47.8092 57.7563 47.585 57.6798 47.3721C57.5842 47.0713 57.5045 46.7657 57.4409 46.4566C57.3179 45.7781 57.2955 45.0852 57.3746 44.4002C57.4372 43.7662 57.6511 43.1565 57.9982 42.6223C58.4878 41.9969 59.1264 41.5042 59.8556 41.1894V41.1894C60.1782 41.0264 60.4887 40.8402 60.7843 40.6322C61.1365 40.3996 61.4167 40.0733 61.5936 39.6902C61.6866 39.4604 61.6866 39.2035 61.5936 38.9737C60.9359 37.7803 60.0685 36.7151 59.033 35.8293C57.295 34.0647 55.3712 32.1011 54.7874 29.8589C54.5146 28.7488 54.6911 27.5759 55.2784 26.5951C55.3902 26.367 55.4876 26.1322 55.5702 25.8919C55.7016 25.4595 55.7016 24.9977 55.5702 24.5652C55.3217 23.5558 54.9519 22.5802 54.469 21.6596C54.0312 20.7574 53.4607 19.6695 52.8637 18.5417C51.6554 16.41 50.6045 14.1928 49.7193 11.908C49.2725 10.7282 49.2444 9.43086 49.6397 8.23288C49.7091 8.06452 49.7451 7.88429 49.7458 7.70219C49.5927 7.17915 49.2824 6.71591 48.8568 6.37543C48.176 5.74676 47.4017 5.22756 46.5616 4.8364C43.233 3.53795 39.7154 2.7896 36.1465 2.6207C31.5978 2.1947 27.0165 2.25699 22.481 2.80647C18.1086 3.36279 13.9398 4.98473 10.3412 7.5297C7.0639 9.96196 4.65103 13.3792 3.45542 17.2813C2.24069 21.3788 1.99087 25.7019 2.72565 29.912C3.91649 36.8859 6.75982 43.4734 11.0178 49.1234C11.1458 49.276 11.2655 49.4354 11.3761 49.601C12.1552 50.4657 12.7508 51.4795 13.1271 52.5809C13.5034 53.6823 13.6524 54.8486 13.5653 56.0092V73.9734H11.2435V55.9827C11.3087 55.0778 11.1921 54.169 10.9004 53.3099C10.6088 52.4509 10.1479 51.6589 9.54517 50.9808L9.16044 50.4767C4.67196 44.5254 1.68214 37.581 0.44367 30.2305C-0.34918 25.6749 -0.0767502 20.9976 1.23969 16.5649C2.58273 12.1909 5.28819 8.36057 8.9614 5.63245C12.8619 2.86905 17.3814 1.1059 22.1228 0.497929C26.838 -0.0792826 31.6011 -0.154906 36.3323 0.272364C40.1818 0.469099 43.9732 1.29371 47.5567 2.71358C48.6214 3.21298 49.6018 3.8755 50.4622 4.67719C51.2497 5.37764 51.8011 6.3045 52.0411 7.3307C52.1117 7.85881 52.0525 8.39618 51.8686 8.89625C51.5912 9.64534 51.5912 10.469 51.8686 11.2181C52.7097 13.384 53.7074 15.4858 54.8538 17.5069C55.4508 18.6479 56.0346 19.7491 56.4857 20.6911C57.069 21.7816 57.5147 22.9403 57.8124 24.1406C58.012 24.9506 57.9845 25.7998 57.7328 26.5951C57.6142 26.9298 57.4769 27.2576 57.3215 27.577C56.9971 28.0845 56.8741 28.6949 56.9766 29.2884C57.4011 30.9203 59.0994 32.6451 60.6384 34.1974C61.9548 35.3239 63.0174 36.7167 63.7563 38.2838C64.0043 39.0527 63.9522 39.8869 63.6103 40.6189C63.2687 41.3696 62.7329 42.0154 62.0581 42.4896C61.6731 42.7716 61.2648 43.0202 60.8375 43.2326C60.4482 43.394 60.096 43.6333 59.8026 43.9358C59.672 44.1641 59.5906 44.4172 59.5638 44.6788C59.4987 45.1186 59.4987 45.5657 59.5638 46.0055C59.5638 46.2709 59.6832 46.5097 59.7362 46.722C59.9717 47.3167 60.0225 47.9686 59.8822 48.5927C59.7691 48.9739 59.6087 49.3394 59.4045 49.6806C59.29 49.8661 59.1923 50.0615 59.1126 50.2644L59.3514 50.6226C59.6613 51.0093 59.8751 51.464 59.975 51.9494C60.0359 52.6914 59.8391 53.4317 59.4178 54.0456C59.325 54.2181 59.2321 54.3906 59.1525 54.5763C59.0516 54.7979 58.9931 55.0364 58.98 55.2795C58.9706 55.576 59.0109 55.872 59.0993 56.1552C59.1789 56.4338 59.3116 56.7522 59.4443 57.0972C59.7794 57.8324 60.0159 58.6086 60.1475 59.4057C60.2626 60.1836 60.1279 60.978 59.7627 61.6745C59.2817 62.5122 58.548 63.1764 57.6665 63.5717C55.4813 64.4723 53.165 65.0144 50.8071 65.1771C47.6362 65.6017 44.6643 65.9864 44.6378 67.4856V74H42.316V67.4724L42.4752 67.4193Z" fill="#4F6EB6"/>
<path d="M96.1694 30.1508V17.6396L90.0134 27.9484H87.864L81.7079 17.8784V30.1508H77.1704V9.24123H81.1507L88.9785 22.2301L96.6869 9.24123H100.667V30.1508H96.1694ZM105.908 9.24123H110.711V22.867L120.701 9.24123H125.239V30.1508H120.462V16.5649L110.472 30.1508H105.908V9.24123V9.24123ZM139.488 9.24123C141.146 9.19988 142.793 9.51663 144.317 10.1699C145.607 10.7197 146.703 11.6441 147.462 12.8234C148.215 14.0125 148.602 15.3965 148.576 16.8037C148.598 18.2104 148.211 19.5933 147.462 20.7839C146.703 21.9632 145.607 22.8876 144.317 23.4375C142.79 24.0799 141.144 24.3919 139.488 24.3529H135.282V30.111H130.439V9.24123H139.488ZM139.223 20.439C140.405 20.5269 141.58 20.1931 142.539 19.497C142.919 19.1712 143.218 18.7623 143.414 18.3021C143.609 17.8419 143.696 17.3427 143.667 16.8435C143.692 16.3447 143.603 15.8469 143.408 15.3873C143.213 14.9277 142.916 14.5183 142.539 14.19C141.577 13.5 140.404 13.1669 139.223 13.248H135.242V20.5053L139.223 20.439Z" fill="#4F6EB6"/>
<path d="M93.1177 44.8247H86.4176V61.7939H81.6413V44.8247H75.0076V40.8445H93.1443V44.8247H93.1177ZM105.218 40.8445C106.875 40.8097 108.521 41.1262 110.047 41.7732C110.995 42.2257 111.836 42.8727 112.518 43.6719C113.199 44.4712 113.704 45.4049 114.001 46.4122C114.297 47.4196 114.378 48.4782 114.239 49.519C114.1 50.5599 113.743 51.5597 113.191 52.4536C112.435 53.6351 111.339 54.5601 110.047 55.1071C108.517 55.7393 106.873 56.0465 105.218 56.0093H100.999V61.7806H96.1692V40.871L105.218 40.8445ZM104.952 52.0555C106.134 52.1344 107.306 51.8015 108.269 51.1135C108.649 50.7878 108.948 50.3789 109.143 49.9187C109.339 49.4584 109.426 48.9593 109.397 48.46C109.422 47.9613 109.333 47.4634 109.138 47.0038C108.943 46.5442 108.646 46.1348 108.269 45.8065C107.309 45.1125 106.134 44.779 104.952 44.8645H100.972V52.1219L104.952 52.0555ZM133.69 57.88V61.7674H117.503V40.871H133.305V44.7584H122.306V49.3091H132.018V53.0639H122.306V57.9065L133.69 57.88ZM137.604 40.8445H142.42V54.4702L152.397 40.8445H156.935V61.7674H152.158V48.1947L142.181 61.7939H137.604V40.871V40.8445ZM147.262 39.5177C143.428 39.5177 141.504 37.992 141.465 34.9537H144.781C144.781 36.3999 145.644 37.1296 147.262 37.1296C147.916 37.1747 148.564 36.9762 149.08 36.5723C149.3 36.3657 149.473 36.1142 149.588 35.835C149.702 35.5558 149.755 35.2553 149.743 34.9537H153.06C153.089 35.5946 152.972 36.2335 152.716 36.8221C152.461 37.4106 152.075 37.9333 151.588 38.3502C150.322 39.2221 148.795 39.6342 147.262 39.5177ZM183.562 57.8402V66.1987H179.078V61.8602H164.325V66.1987H159.84V57.9198H160.676C162.003 57.9198 162.825 56.9645 163.329 55.1601C163.942 52.6493 164.263 50.076 164.285 47.4915L164.524 40.9373H180.59V57.9198L183.562 57.8402ZM168.597 47.863C168.532 49.9628 168.319 52.0554 167.96 54.1253C167.786 55.4688 167.285 56.7491 166.5 57.8534H175.854V44.8247H168.676L168.597 47.863V47.863ZM186.826 40.871H191.629V54.4967L201.606 40.871H206.157V61.7939H201.367V48.1947L191.39 61.7939H186.826V40.871ZM230.529 40.871V61.7939H225.647V53.2231H216.134V61.7939H211.292V40.871H216.134V49.1234H225.647V40.871H230.529ZM250.497 44.8513H240.546V61.8204H235.73V40.871H250.497V44.8513ZM263.579 57.336H253.867L252.023 61.8204H247.061L256.348 40.8975H261.138L270.491 61.8204H265.45L263.592 57.336H263.579ZM262.053 53.6609L258.736 45.7004L255.419 53.6609H262.053Z" fill="#FF8422"/>
</svg>
