<svg xmlns="http://www.w3.org/2000/svg" xmlns:xlink="http://www.w3.org/1999/xlink" width="67" height="65" viewBox="0 0 67 65">
    <defs>
        <path id="a" d="M3.744 0A25.398 25.398 0 0 0 .75 12.002c0 14.085 11.416 25.506 25.5 25.506a25.38 25.38 0 0 0 15-4.878V0H3.744z"/>
        <path id="c" d="M.75 25.505c0 14.085 11.416 25.505 25.5 25.505s25.5-11.42 25.5-25.505C51.75 11.42 40.334 0 26.25 0S.75 11.419.75 25.505z"/>
    </defs>
    <g fill="none" fill-rule="evenodd">
        <path fill="#69674F" d="M57.25 31.257c0 14.087-11.416 25.505-25.5 25.505S6.25 45.344 6.25 31.257c0-14.086 11.416-25.505 25.5-25.505s25.5 11.419 25.5 25.505"/>
        <path stroke="#A3A3A3" stroke-linecap="round" stroke-linejoin="round" d="M62.5 31.257c0 16.987-13.767 30.756-30.75 30.756S1 48.243 1 31.257 14.767.501 31.75.501 62.5 14.27 62.5 31.257z"/>
        <g transform="translate(5.5 5.752)">
            <g transform="translate(0 13.503)">
                <mask id="b" fill="#fff">
                    <use xlink:href="#a"/>
                </mask>
                <path fill="#FFFBD6" d="M41.25 9.002l-3 34.507-39 4.5-7.5-22.504L20.25 0" mask="url(#b)"/>
            </g>
            <mask id="d" fill="#fff">
                <use xlink:href="#c"/>
            </mask>
            <path fill="#FFF" d="M16.5 72.765H48V30.756H16.5z" mask="url(#d)"/>
            <path fill="#666" d="M15.75 73.515h33V30.006h-33v43.509zm1.5-1.5h30V31.506h-30v40.509z" mask="url(#d)"/>
            <path stroke="#A3A3A3" stroke-linecap="round" stroke-linejoin="round" d="M25.848 36.222h17.867M25.848 39.33h17.867M25.848 42.437h17.867M25.848 45.545h17.867M25.848 48.653h17.867M25.848 51.76h17.867" mask="url(#d)"/>
            <path fill="#6B6951" d="M40.598 30.006h8.152v16.856l-10.5 16.15z" mask="url(#d)"/>
            <path fill="#F25637" d="M41.216 8.638l20.568 9.499.359-.776-20.568-9.498z" mask="url(#d)"/>
            <path stroke="#5C1F13" stroke-linecap="round" stroke-linejoin="round" d="M41.216 8.638l20.568 9.499.359-.776-20.568-9.498z" mask="url(#d)"/>
            <path fill="#0DA64D" d="M7.875 65.549c-1.024-4.97-2.766-14.867-2.766-24.665 0-9.8 1.742-19.696 2.766-24.667 1.024 4.97 2.766 14.867 2.766 24.667 0 9.798-1.742 19.694-2.766 24.665" mask="url(#d)"/>
            <path fill="#0DA64D" d="M7.875 12.753s-3.516 14.065-3.516 28.13c0 14.066 3.516 28.131 3.516 28.131s3.516-14.065 3.516-28.13c0-14.066-3.516-28.131-3.516-28.131m0 7.45c.951 5.349 2.016 13.047 2.016 20.68 0 7.634-1.065 15.332-2.016 20.68-.951-5.348-2.016-13.046-2.016-20.68 0-7.633 1.065-15.331 2.016-20.68" mask="url(#d)"/>
            <path fill="#065728" d="M6.356 24.93a147.69 147.69 0 0 1 1.52-8.711c.337 1.638.752 3.806 1.154 6.317L6.356 24.93z" mask="url(#d)"/>
            <path fill="#065728" d="M7.875 12.753s-1.497 6.014-2.537 14.095l4.499-4.027c-.942-5.967-1.962-10.068-1.962-10.068m.002 7.449c.115.65.232 1.335.349 2.049l-.818.73c.156-.98.314-1.91.468-2.78" mask="url(#d)"/>
        </g>
        <g>
            <path fill="#FFF26E" d="M41.086 24.138a4.499 4.499 0 1 1-8.173-3.766 4.499 4.499 0 1 1 8.173 3.766"/>
            <path stroke="#4F4C2B" stroke-linecap="round" stroke-linejoin="round" d="M41.086 24.138a4.499 4.499 0 1 1-8.173-3.766 4.499 4.499 0 1 1 8.173 3.766z"/>
            <path fill="#F25637" d="M26.47 18.91c.962-2.083 6.924-8.35 14.513-4.846 7.59 3.507 6.688 12.108 5.725 14.193L26.47 18.91z"/>
            <path stroke="#5C1F13" stroke-linecap="round" stroke-linejoin="round" d="M26.47 18.91c.962-2.083 6.924-8.35 14.513-4.846 7.59 3.507 6.688 12.108 5.725 14.193L26.47 18.91z"/>
            <path fill="#F25637" d="M45.132 17.424l-9.395-4.339 1.392-3.015a5.175 5.175 0 0 1 6.867-2.53 5.176 5.176 0 0 1 2.527 6.869l-1.392 3.015z"/>
            <path stroke="#5C1F13" stroke-linecap="round" stroke-linejoin="round" d="M45.132 17.424l-9.395-4.339 1.392-3.015a5.175 5.175 0 0 1 6.867-2.53 5.176 5.176 0 0 1 2.527 6.869l-1.392 3.015z"/>
            <path fill="#F25637" d="M43.243 6.41l.279-.602a1.033 1.033 0 1 1 1.878.867l-.278.603"/>
            <path stroke="#5C1F13" stroke-linecap="round" stroke-linejoin="round" d="M43.243 6.41l.279-.602a1.033 1.033 0 1 1 1.878.867l-.278.603"/>
            <path fill="#FFF" d="M63.25 31.257h3"/>
            <path stroke="#F25637" stroke-linecap="round" stroke-linejoin="round" d="M63.25 31.257h3"/>
            <g>
                <path fill="#FFF" d="M33.25 61.263v3"/>
                <path stroke="#F25637" stroke-linecap="round" stroke-linejoin="round" d="M33.25 61.263v3"/>
            </g>
            <g>
                <path fill="#FFF" d="M31.75 7.252v-3"/>
                <path stroke="#57BC3F" stroke-linecap="round" stroke-linejoin="round" d="M31.75 7.252v-3"/>
            </g>
        </g>
    </g>
</svg>
