<svg width="14" height="9" viewBox="0 0 14 9" fill="none" xmlns="http://www.w3.org/2000/svg">
<path d="M7.00003 8.00003C6.76638 8.00049 6.53994 7.91911 6.36003 7.77003L0.360032 2.77003C0.155815 2.60029 0.0273905 2.35638 0.0030108 2.09196C-0.0213689 1.82753 0.060293 1.56425 0.230032 1.36003C0.39977 1.15581 0.643682 1.02739 0.908108 1.00301C1.17253 0.978631 1.43581 1.06029 1.64003 1.23003L7.00003 5.71003L12.36 1.39003C12.4623 1.30697 12.58 1.24493 12.7064 1.2075C12.8327 1.17007 12.9652 1.15798 13.0962 1.17192C13.2272 1.18586 13.3542 1.22555 13.4699 1.28873C13.5855 1.3519 13.6875 1.4373 13.77 1.54003C13.8616 1.64285 13.931 1.76348 13.9738 1.89435C14.0166 2.02523 14.0319 2.16353 14.0187 2.30059C14.0056 2.43765 13.9643 2.57053 13.8974 2.69088C13.8305 2.81124 13.7395 2.91649 13.63 3.00003L7.63003 7.83003C7.44495 7.95555 7.22313 8.0154 7.00003 8.00003Z" fill="#484848"/>
</svg>
