<svg width="30" height="30" viewBox="0 0 30 30" fill="none" xmlns="http://www.w3.org/2000/svg">
    <path d="M15.0319 29.9998C6.76436 30.0261 0.0263058 27.5236 0 24.4115C0 23.3089 0.868092 22.3305 2.28861 21.401C3.97218 20.3059 4.73881 17.9427 5.38142 15.4176C6.02404 12.8926 6.93723 6.51779 6.93723 6.51779C7.47462 2.84497 10.8418 0.0113234 14.9267 3.39291e-05C19.0116 -0.0112555 22.4126 2.79605 22.9575 6.4764C22.9575 6.4764 23.9083 12.8399 24.5659 15.3612C25.2235 17.8825 26.0052 20.2533 27.6925 21.3258C29.1206 22.244 29.9962 23.2073 29.9999 24.3363C30.0225 27.4333 23.3333 29.9772 15.0319 29.9998ZM17.6625 2.09987L17.8279 2.25039C17.9886 2.38065 18.1393 2.52279 18.2788 2.67562C18.4846 2.89723 18.6672 3.13933 18.8237 3.39815C19.0309 3.72713 19.2095 4.07336 19.3573 4.43302C19.4445 4.63459 19.5174 4.84208 19.5753 5.05393C19.6568 5.27787 19.7246 5.5066 19.7782 5.73883C19.8346 5.97967 19.891 6.2318 19.9473 6.49146C19.9737 6.6194 20.0037 6.74735 20.0338 6.86777L20.0901 7.27042C20.1653 7.81608 20.2818 8.36174 20.3231 8.94879C20.3645 9.53584 20.4547 10.1304 20.5186 10.7212C20.5824 11.312 20.6501 11.9217 20.7478 12.5238C20.8455 13.1259 20.9545 13.7204 21.086 14.2887C21.2175 14.8569 21.3528 15.3988 21.5332 15.9068C21.6844 16.3909 21.8664 16.8648 22.0781 17.3255C22.1758 17.54 22.2585 17.747 22.36 17.9389L22.6794 18.4658C22.8495 18.7516 23.0471 19.0201 23.2694 19.2673C23.3454 19.365 23.4339 19.4523 23.5325 19.527L23.7391 19.7001C23.8481 19.7942 23.9083 19.8393 23.9083 19.8393L23.8068 19.6436C23.7062 19.4658 23.6159 19.2824 23.5362 19.0942C23.4171 18.8054 23.3142 18.5102 23.2281 18.2099C23.183 18.0368 23.1304 17.8524 23.0777 17.6605C23.0251 17.4685 22.9876 17.254 22.9425 17.0358C22.8372 16.6105 22.7846 16.1251 22.6944 15.6284C22.6042 15.1316 22.5629 14.586 22.4765 14.0403C22.39 13.4947 22.36 12.9114 22.2811 12.3394C22.2021 11.7674 22.157 11.1465 22.0969 10.5444C22.0368 9.94225 21.9391 9.3251 21.8489 8.73052C21.7595 8.13265 21.634 7.54075 21.4731 6.95808C21.4355 6.81508 21.4017 6.67585 21.3641 6.53661C21.3265 6.39737 21.2664 6.2619 21.2138 6.12643L20.9169 5.33993C20.8712 5.20932 20.8134 5.08332 20.744 4.96361L20.5524 4.60988C20.4421 4.38697 20.3165 4.17196 20.1766 3.96639C20.0263 3.7707 19.891 3.59007 19.7482 3.4132C19.6125 3.25222 19.4629 3.10362 19.301 2.96915C19.043 2.74792 18.756 2.56306 18.4479 2.41973C18.3464 2.35463 18.2364 2.30397 18.121 2.26921L17.8692 2.17889L17.6625 2.09987ZM5.6069 20.0087C5.6069 20.0087 5.80232 19.9748 6.14429 19.9033C6.3134 19.8694 6.52009 19.828 6.75308 19.7678L7.5385 19.6098C7.83163 19.5533 8.13227 19.4743 8.46672 19.4216C8.80118 19.3689 9.14316 19.3049 9.50017 19.2259C9.85718 19.1469 10.2518 19.1243 10.6276 19.0528L11.195 18.9587L11.7737 18.9023C12.1495 18.8609 12.5253 18.8007 12.9199 18.7668C13.3145 18.733 13.6715 18.7217 14.0473 18.6991L14.5847 18.6652H15.0657C15.3964 18.6652 15.7121 18.6652 16.0052 18.6652C16.1454 18.6556 16.286 18.6556 16.4261 18.6652L16.8019 18.6878L17.422 18.7141C17.7677 18.7141 17.9706 18.7141 17.9706 18.7141C17.9706 18.7141 17.7828 18.6502 17.4521 18.5523L16.8433 18.3792C16.582 18.3005 16.3159 18.2389 16.0466 18.1948C15.7497 18.1534 15.4303 18.1083 15.0845 18.0706L14.5584 18.0104C14.378 17.9916 14.1826 18.0104 14.006 18.0104C13.6302 18.0104 13.2544 18.0104 12.8485 18.0104C12.4427 18.0104 12.0556 18.0819 11.6572 18.1196L11.0635 18.1948L10.481 18.304C10.1052 18.3792 9.72941 18.4582 9.35361 18.5523C8.97781 18.6464 8.64711 18.7555 8.31641 18.8571C8.00788 18.9507 7.70434 19.0599 7.40698 19.1845C6.95638 19.3487 6.51701 19.5423 6.09168 19.764C5.77225 19.9146 5.59939 20.0087 5.59939 20.0087H5.6069ZM28.2187 24.5658C28.2187 22.4396 22.2923 20.7349 14.9981 20.7575C7.70386 20.7801 1.79255 22.5187 1.80007 24.6448C1.80759 26.771 7.72265 28.4757 15.0206 28.4531C22.3186 28.4306 28.2187 26.692 28.2187 24.5658ZM21.9879 22.3079C19.9249 21.9385 17.8341 21.7472 15.7384 21.7359C15.585 22.1813 15.5306 22.6548 15.579 23.1235C15.6273 23.5921 15.7772 24.0445 16.0182 24.4491C16.2593 24.8536 16.5856 25.2006 16.9745 25.4658C17.3633 25.731 17.8053 25.908 18.2695 25.9844C18.7337 26.0608 19.209 26.0348 19.6622 25.9082C20.1154 25.7816 20.5354 25.5575 20.8931 25.2515C21.2508 24.9454 21.5375 24.5649 21.733 24.1364C21.9286 23.708 22.0284 23.2419 22.0255 22.7708C22.027 22.616 22.0169 22.4613 21.9954 22.3079H21.9879Z" fill="#06294A"/>
</svg>
