<svg width="10" height="10" viewBox="0 0 10 10" fill="#e5e5e5" xmlns="http://www.w3.org/2000/svg">
<path d="M7.91667 0.833374H2.5C1.9975 0.833374 1.25 1.16629 1.25 2.08337V7.91671C1.25 8.83379 1.9975 9.16671 2.5 9.16671H8.75V8.33337H2.505C2.3125 8.32837 2.08333 8.25254 2.08333 7.91671C2.08333 7.87462 2.08708 7.83712 2.09333 7.80296C2.14 7.56296 2.33667 7.50421 2.505 7.50004H8.75V1.66671C8.75 1.44569 8.6622 1.23373 8.50592 1.07745C8.34964 0.921171 8.13768 0.833374 7.91667 0.833374ZM7.91667 4.58337L7.08333 4.16671L6.25 4.58337V1.66671H7.91667V4.58337Z" fill="#e5e5e5"/>
</svg>
