<svg width="30" height="30" viewBox="0 0 30 30" fill="none" xmlns="http://www.w3.org/2000/svg">
<path d="M15 0C12.0333 0 9.13319 0.879734 6.66645 2.52795C4.19971 4.17618 2.27713 6.51885 1.14181 9.25975C0.00649921 12.0006 -0.290551 15.0166 0.288227 17.9263C0.867006 20.8361 2.29562 23.5088 4.3934 25.6066C6.49119 27.7044 9.16394 29.133 12.0736 29.7118C14.9834 30.2906 17.9994 29.9935 20.7403 28.8582C23.4811 27.7229 25.8238 25.8003 27.472 23.3335C29.1203 20.8668 30 17.9667 30 15C30 11.0217 28.4196 7.20644 25.6066 4.3934C22.7936 1.58035 18.9782 0 15 0V0ZM20.8125 19.8562C20.7444 19.9593 20.6566 20.0479 20.5541 20.1169C20.4517 20.1859 20.3366 20.234 20.2155 20.2584C20.0944 20.2828 19.9697 20.283 19.8485 20.259C19.7273 20.2351 19.6121 20.1874 19.5094 20.1187L13.9781 16.3687V8.20312C13.9781 7.95448 14.0769 7.71603 14.2527 7.54021C14.4285 7.3644 14.667 7.26562 14.9156 7.26562C15.1643 7.26562 15.4027 7.3644 15.5785 7.54021C15.7544 7.71603 15.8531 7.95448 15.8531 8.20312V15.375L20.5406 18.5531C20.6444 18.6205 20.7339 18.7077 20.8038 18.8099C20.8737 18.912 20.9227 19.0269 20.948 19.1481C20.9733 19.2692 20.9743 19.3941 20.9511 19.5157C20.9278 19.6372 20.8807 19.753 20.8125 19.8562V19.8562ZM20.4844 5.84062C19.1653 5.04554 17.6898 4.54523 16.1592 4.37401C14.6285 4.20279 13.0789 4.36472 11.6168 4.84868C10.1546 5.33264 8.81442 6.12718 7.68819 7.1778C6.56196 8.22841 5.67634 9.51022 5.09208 10.9353C4.50782 12.3604 4.23876 13.8949 4.30336 15.4338C4.36795 16.9726 4.76467 18.4793 5.4663 19.8503C6.16793 21.2214 7.15786 22.4245 8.36818 23.3771C9.57849 24.3296 10.9805 25.009 12.4781 25.3687L12.1875 26.8406C10.47 26.4408 8.85961 25.6731 7.46766 24.5904C6.0757 23.5077 4.93528 22.1358 4.12513 20.5695C3.31498 19.0031 2.85439 17.2796 2.77517 15.5179C2.69594 13.7563 2.99997 11.9984 3.66625 10.3656C4.33254 8.73288 5.34521 7.26418 6.63437 6.0609C7.92353 4.85762 9.45845 3.94844 11.1332 3.39612C12.8079 2.8438 14.5826 2.66149 16.3346 2.86179C18.0867 3.06208 19.7744 3.6402 21.2813 4.55625L20.4844 5.84062Z" fill="#5775B9"/>
</svg>
