<svg width="145" height="110" fill="none" xmlns="http://www.w3.org/2000/svg"><path d="M139.175 0h-31.969a2.11 2.11 0 000 4.22h31.969c.388 0 .704.316.704.704v12.809H4.267V4.923c0-.387.316-.703.704-.703h92.522a2.11 2.11 0 000-4.22H4.97A4.93 4.93 0 00.047 4.924v100.153a4.93 4.93 0 004.924 4.924h112.356a2.11 2.11 0 100-4.22H4.971a.705.705 0 01-.704-.704V21.953H139.88v27.406a2.11 2.11 0 104.22 0V4.924A4.93 4.93 0 00139.175 0z" fill="#484848"/><path d="M141.988 56.962a2.11 2.11 0 00-2.11 2.11v46.005a.705.705 0 01-.703.704H127.04a2.11 2.11 0 100 4.22h12.135a4.93 4.93 0 004.923-4.924V59.072a2.11 2.11 0 00-2.11-2.11z" fill="#484848"/><path d="M13.391 8.866a2.11 2.11 0 000 4.22h.032a2.11 2.11 0 000-4.22h-.032zm6.371 0a2.11 2.11 0 000 4.22h.032a2.11 2.11 0 000-4.22h-.032z" fill="#FF7D14"/><path d="M26.134 8.866a2.11 2.11 0 000 4.22h.031a2.11 2.11 0 000-4.22h-.031z" fill="#5775B9"/><path d="M130.752 13.086a2.11 2.11 0 000-4.22h-3.927a2.11 2.11 0 000 4.22h3.927z" fill="#FF7D14"/><path d="M94.603 50.638c0-12.423-10.107-22.53-22.53-22.53-12.423 0-22.53 10.107-22.53 22.53 0 12.423 10.107 22.53 22.53 22.53 12.423 0 22.53-10.107 22.53-22.53zm-22.53 18.31c-10.096 0-18.31-8.214-18.31-18.31 0-10.096 8.214-18.31 18.31-18.31 10.096 0 18.31 8.214 18.31 18.31 0 10.096-8.214 18.31-18.31 18.31z" fill="#5775B9"/><path d="M64.622 76.012a2.11 2.11 0 100 4.22h14.902a2.11 2.11 0 100-4.22H64.622z" fill="#484848"/><path d="M92.402 92.42a2.11 2.11 0 00-2.11-2.111h-52.74a2.11 2.11 0 000 4.22h52.74a2.11 2.11 0 002.11-2.11z" fill="#5775B9"/><path d="M106.593 90.309H98.86a2.11 2.11 0 000 4.22h7.733a2.11 2.11 0 000-4.22zm-69.042 6.425a2.11 2.11 0 000 4.221h16.847a2.11 2.11 0 000-4.22H37.55z" fill="#484848"/><path d="M62.403 100.955h44.189a2.11 2.11 0 100-4.22H62.403a2.11 2.11 0 100 4.22z" fill="#5775B9"/><path d="M79.895 42.816a2.11 2.11 0 00-2.984 0l-4.838 4.838-4.838-4.838A2.11 2.11 0 0064.25 45.8l4.838 4.838-4.838 4.838a2.11 2.11 0 102.984 2.984l4.838-4.837 4.838 4.837c.412.412.952.618 1.492.618s1.08-.206 1.492-.618a2.11 2.11 0 000-2.984l-4.838-4.837 4.838-4.838a2.11 2.11 0 000-2.985z" fill="#FF7D14"/></svg>