<svg width="30" height="30" viewBox="0 0 26 27" fill="none" xmlns="http://www.w3.org/2000/svg">
<path d="M3.25 23V3H5.75V11.75L8.875 9.875L12 11.75V3H18.25V11.85C18.6625 11.7875 19.075 11.75 19.5 11.75C19.925 11.75 20.3375 11.7875 20.75 11.85V3C20.75 1.625 19.625 0.5 18.25 0.5H3.25C1.875 0.5 0.75 1.625 0.75 3V23C0.75 24.375 1.875 25.5 3.25 25.5H12.325C11.8 24.75 11.3875 23.9 11.1125 23H3.25ZM19.5 14.25C16.05 14.25 13.25 17.05 13.25 20.5C13.25 23.95 16.05 26.75 19.5 26.75C22.95 26.75 25.75 23.95 25.75 20.5C25.75 17.05 22.95 14.25 19.5 14.25ZM17.9375 23.625V17.375L22.9375 20.5L17.9375 23.625Z" fill="#5775B9"/>
</svg>
