<svg width="30" height="24" viewBox="0 0 30 24" fill="none" xmlns="http://www.w3.org/2000/svg">
<path d="M23.25 10.5C19.5192 10.5 16.5 13.5192 16.5 17.25C16.5 20.9808 19.5192 24 23.25 24C26.9808 24 30 20.9808 30 17.25C30 13.5192 26.9808 10.5 23.25 10.5ZM26.25 17.5448C26.25 17.7952 26.0452 18 25.7948 18H22.9556C22.7053 18 22.5005 17.7952 22.5005 17.5448V13.9556C22.5005 13.7053 22.7053 13.5005 22.9556 13.5005H23.5448C23.7952 13.5005 24 13.7053 24 13.9556V16.5H25.7948C26.0452 16.5 26.25 16.7048 26.25 16.9552V17.5448ZM23.25 9C23.5031 9 23.7525 9.01547 24 9.03797V6.75C24 5.55 22.95 4.5 21.75 4.5H18V2.25C18 1.05 16.95 0 15.75 0H8.25C7.05 0 6 1.05 6 2.25V4.5H2.25C1.05 4.5 0 5.55 0 6.75V10.5H18.5212C19.8619 9.55828 21.4908 9 23.25 9ZM15 4.5H9V3H15V4.5ZM15.3197 15H9.75C9.33562 15 9 14.6644 9 14.25V12H0V18.75C0 19.95 1.05 21 2.25 21H15.9108C15.3328 19.8731 15 18.6009 15 17.25C15 16.4691 15.1163 15.7163 15.3197 15Z" fill="#5775B9"/>
</svg>
